<svg id="svg" version="1.1" xmlns="http://www.w3.org/2000/svg" viewBox="0 0 1024 1024" style="display: block;"><path d="M0 0 C337.92 0 675.84 0 1024 0 C1024 337.92 1024 675.84 1024 1024 C686.08 1024 348.16 1024 0 1024 C0 686.08 0 348.16 0 0 Z " transform="translate(0,0)" style="fill: #EFF0EE;"/><path d="M0 0 C9.47716714 26.72882395 12.06153449 64.98813159 -10.75 85.9375 C-14.28891573 88.2146631 -17.98711956 90.05605978 -21.75 91.9375 C-21.80821255 97.45828883 -21.84366882 102.97899832 -21.875 108.5 C-21.89175781 110.06298828 -21.90851562 111.62597656 -21.92578125 113.23632812 C-21.93222656 114.74775391 -21.93867187 116.25917969 -21.9453125 117.81640625 C-21.95578613 119.2041626 -21.96625977 120.59191895 -21.97705078 122.02172852 C-21.6018594 128.49236789 -20.05876477 133.06097097 -16.0625 138.125 C6.34571203 167.9485878 7.37520499 203.5903505 -0.75 238.9375 C-1.16716005 240.88270676 -1.58381344 242.82802223 -2 244.7734375 C-7.43466449 269.3424846 -15.05744436 293.70985078 -24.75 316.9375 C-25.20133301 318.0193457 -25.65266602 319.10119141 -26.11767578 320.21582031 C-37.31335258 346.77369434 -37.31335258 346.77369434 -45.75 357.9375 C-46.38035156 358.77796875 -47.01070312 359.6184375 -47.66015625 360.484375 C-53.58706938 367.73784569 -61.88410828 375.74258019 -71.75 374.9375 C-71.75 376.5875 -71.75 378.2375 -71.75 379.9375 C-73.08333333 377.27083333 -74.41666667 374.60416667 -75.75 371.9375 C-77.07 371.2775 -78.39 370.6175 -79.75 369.9375 C-79.52957031 371.72414063 -79.52957031 371.72414063 -79.3046875 373.546875 C-78.72330753 378.78133464 -78.41130202 384.020405 -78.10424805 389.27709961 C-76.66868699 452.63575249 -76.66868699 452.63575249 -44.75 502.9375 C-42.56722802 503.22057312 -42.56722802 503.22057312 -41.61328125 501.109375 C-31.22519051 484.88616024 -16.78445919 481.92900649 1.25 486.9375 C15.86353328 492.68227492 22.75932788 504.41244914 22.0859375 519.76953125 C21.24997297 527.27491647 17.26244591 532.93205242 13.2421875 539.140625 C10.24910504 543.77470977 8.06830794 548.54927132 5.9375 553.625 C-4.46161917 577.70754567 -19.47846558 599.30842675 -36.75 618.9375 C-37.27770996 619.54988525 -37.80541992 620.16227051 -38.34912109 620.79321289 C-58.20884558 643.7628547 -80.73130857 660.24838217 -107.75 673.9375 C-108.5347168 674.33791504 -109.31943359 674.73833008 -110.12792969 675.15087891 C-119.08467254 679.68548773 -128.11606001 683.63811494 -137.625 686.875 C-138.44403809 687.15754639 -139.26307617 687.44009277 -140.10693359 687.73120117 C-176.387219 699.53152141 -212.82936122 689.45370338 -247.33154297 677.46728516 C-251.32935106 676.08313964 -255.33598127 674.72999695 -259.34765625 673.38671875 C-290.37634097 662.85453744 -317.87007264 648.2864333 -342.75 626.9375 C-343.38897217 626.39134033 -344.02794434 625.84518066 -344.6862793 625.2824707 C-357.37375226 614.33194551 -368.7844154 602.41625753 -378.75 588.9375 C-379.37519531 588.13441406 -380.00039063 587.33132813 -380.64453125 586.50390625 C-387.75 577.35842457 -387.75 577.35842457 -387.75 572.9375 C-389.791875 573.06125 -389.791875 573.06125 -391.875 573.1875 C-396.98808968 572.92529027 -398.87396137 572.11783939 -402.75 568.9375 C-401.69845361 561.57667526 -401.69845361 561.57667526 -396.75 558.9375 C-395.1 558.9375 -393.45 558.9375 -391.75 558.9375 C-394.2301747 550.80803847 -398.10169628 545.60063533 -406.75 543.9375 C-413.91706392 544.12127087 -418.41439357 545.38066832 -424.75 548.9375 C-425.74 549.2675 -426.73 549.5975 -427.75 549.9375 C-428.44419563 551.59288958 -429.10103764 553.26386023 -429.75 554.9375 C-430.28625 556.319375 -430.8225 557.70125 -431.375 559.125 C-433.55448054 565.63058513 -434.75214726 572.4843286 -428.875 576.75 C-422.55109309 581.33993243 -422.0066032 586.07624164 -420.62890625 593.4921875 C-419.00362099 599.8633057 -415.89242528 602.84869479 -410.921875 607.06640625 C-404.51174344 612.58880376 -399.14883374 618.78401797 -393.87109375 625.37890625 C-392.06477371 627.55780059 -390.22383663 629.54032546 -388.1875 631.5 C-385.75 633.9375 -385.75 633.9375 -385.75 635.9375 C-385.09 635.9375 -384.43 635.9375 -383.75 635.9375 C-383.151875 636.741875 -382.55375 637.54625 -381.9375 638.375 C-377.64958805 643.16737218 -372.78567753 646.95769034 -367.75 650.9375 C-366.64914062 651.83082031 -365.54828125 652.72414063 -364.4140625 653.64453125 C-314.23720487 693.95515283 -255.049862 707.70100473 -191.97119141 708.86572266 C-189.17892651 708.92794229 -186.39503102 709.03497212 -183.60546875 709.16796875 C-171.69409075 709.55764248 -161.1082637 707.22054125 -149.75 703.9375 C-148.28046875 703.5146875 -146.8109375 703.091875 -145.296875 702.65625 C-99.52349846 688.34166679 -58.5744485 660.63978125 -27.75 623.9375 C-27.15832031 623.23496094 -26.56664062 622.53242187 -25.95703125 621.80859375 C-16.82644577 610.68245762 -8.72601521 598.82421657 -1.3125 586.5 C-0.8287793 585.69643066 -0.34505859 584.89286133 0.15332031 584.06494141 C3.02648434 579.21210947 5.63552551 574.27637462 8.12280273 569.21557617 C9.52933801 566.37295528 11.03144755 563.58975794 12.5625 560.8125 C13.07425781 559.88179687 13.58601562 558.95109375 14.11328125 557.9921875 C14.48839844 557.31414063 14.86351562 556.63609375 15.25 555.9375 C16.49141259 560.90315035 15.55377537 562.06033197 13.3125 566.5625 C10.54782145 572.21158728 7.99657942 577.88866374 5.5625 583.6875 C-0.64802117 597.70621992 -9.11053472 610.27911559 -18.6328125 622.265625 C-20.35013847 624.4328777 -21.97203563 626.67550622 -23.5625 628.9375 C-25.75085021 631.938666 -28.09549814 634.34620056 -30.75 636.9375 C-33.96781303 640.47639632 -37.09412771 643.95369156 -39.75 647.9375 C-40.41 647.9375 -41.07 647.9375 -41.75 647.9375 C-41.75 648.5975 -41.75 649.2575 -41.75 649.9375 C-42.42804687 650.48277344 -43.10609375 651.02804687 -43.8046875 651.58984375 C-48.4555716 655.35821937 -53.01578239 659.14632273 -57.375 663.25 C-70.62660642 675.21383276 -85.94652897 683.83687825 -101.75 691.9375 C-102.53036621 692.3406543 -103.31073242 692.74380859 -104.11474609 693.15917969 C-128.83218714 705.79529141 -154.81456412 713.90492792 -181.82128906 720.04199219 C-185.10606909 720.79072281 -188.37713151 721.57808753 -191.6484375 722.3828125 C-254.20793908 736.95473728 -326.31835051 710.16594241 -371.75 666.9375 C-373.05624975 665.80524877 -374.36837187 664.67972076 -375.6875 663.5625 C-383.97801235 656.3466837 -391.73872167 648.40171794 -398.75 639.9375 C-399.33652344 639.24011719 -399.92304688 638.54273438 -400.52734375 637.82421875 C-404.90926816 632.49242934 -408.95204334 626.9427289 -412.9375 621.3125 C-413.43660889 620.60810791 -413.93571777 619.90371582 -414.44995117 619.17797852 C-416.87872489 615.71678411 -419.19151091 612.23564093 -421.3671875 608.609375 C-423.41547796 605.45299298 -424.67924017 603.86722144 -427.6875 601.8125 C-433.45798544 597.10413427 -437.75 588.42228383 -437.75 580.9375 C-446.33250979 582.88748728 -454.50900429 585.43519078 -462.625 588.8125 C-463.78189331 589.28526367 -463.78189331 589.28526367 -464.9621582 589.76757812 C-468.93949832 591.46771109 -472.16972795 593.23348837 -475.73828125 595.75 C-481.87781734 599.9839329 -488.80715698 602.45967001 -495.72338867 605.15185547 C-498.05090573 606.05798621 -500.37216687 606.9801323 -502.69335938 607.90234375 C-509.12182851 610.43837068 -515.53233249 612.91877892 -522.1171875 615.01953125 C-528.20173508 616.99402506 -533.83677261 619.66611452 -539.5625 622.5 C-541.76672211 623.57594085 -543.97115378 624.65145248 -546.17578125 625.7265625 C-547.27615723 626.26571289 -548.3765332 626.80486328 -549.51025391 627.36035156 C-552.53253921 628.8316374 -555.56492313 630.27784045 -558.60546875 631.7109375 C-585.8240286 644.54023198 -612.31949524 658.70177719 -637.8984375 674.55859375 C-641.13932633 676.5603192 -644.40191572 678.51065158 -647.6875 680.4375 C-651.79005105 682.74593052 -651.79005105 682.74593052 -654.75 685.9375 C-643.8969818 684.8907622 -634.24886578 683.02326625 -624.16796875 678.875 C-621.75 677.9375 -621.75 677.9375 -617.75 676.9375 C-618.75 679.9375 -618.75 679.9375 -621.75 679.9375 C-621.75 680.5975 -621.75 681.2575 -621.75 681.9375 C-624.93484819 683.40186728 -628.12264183 684.85911948 -631.3125 686.3125 C-632.20775391 686.725 -633.10300781 687.1375 -634.02539062 687.5625 C-641.60726672 691.00628255 -648.29709203 693.11699161 -656.6875 693.5625 C-658.01652344 693.63726563 -659.34554687 693.71203125 -660.71484375 693.7890625 C-663.75 693.9375 -663.75 693.9375 -665.75 691.9375 C-665.0357898 678.87993959 -649.36486958 672.58207969 -639.0625 666.9375 C-636.56850073 665.54388049 -634.07500835 664.14935345 -631.58203125 662.75390625 C-630.39561035 662.09406738 -629.20918945 661.43422852 -627.98681641 660.75439453 C-624.02824688 658.53236448 -620.13912083 656.21628982 -616.25 653.875 C-599.19602027 643.78600899 -581.53411881 634.66398984 -563.75 625.9375 C-561.14536588 624.6259279 -558.54121288 623.31339999 -555.9375 622 C-542.57077638 615.32317129 -529.05685553 609.03650643 -515.37890625 603.0234375 C-511.33880591 601.22496898 -507.36169782 599.31261701 -503.38647461 597.37573242 C-455.15120535 573.9375 -455.15120535 573.9375 -437.75 573.9375 C-438.183125 572.555625 -438.61625 571.17375 -439.0625 569.75 C-441.48069071 557.57268247 -433.22563262 545.89094551 -423.0625 540 C-412.36897528 534.88570557 -402.30993979 535.44545739 -393.0625 543.1875 C-385.75 551.88344595 -385.75 551.88344595 -385.75 555.9375 C-384.71875 555.1125 -383.6875 554.2875 -382.625 553.4375 C-378.93794625 550.65432715 -375.10895328 548.41191901 -371.0625 546.1875 C-344.35838549 531.14856613 -333.96209134 513.82766967 -334.75 483.375 C-334.82640495 480.35318415 -334.88954652 477.33099498 -334.9375 474.30859375 C-334.97230469 472.98786865 -335.00710938 471.66714355 -335.04296875 470.30639648 C-334.75 466.9375 -334.75 466.9375 -331.75 462.9375 C-331.09 462.9375 -330.43 462.9375 -329.75 462.9375 C-330.95978607 458.50161775 -333.44170985 456.12110998 -336.70703125 453.00390625 C-338.98123728 450.7036099 -340.97720158 448.27395853 -343 445.75 C-346.2997297 441.64641792 -349.72787835 437.73231071 -353.3125 433.875 C-358.06176738 428.74870165 -362.4533684 423.4439492 -366.75 417.9375 C-368.04011342 416.33208391 -369.33180864 414.7279378 -370.625 413.125 C-372.00179259 411.39726028 -373.37667151 409.6679945 -374.75 407.9375 C-375.55695313 406.926875 -376.36390625 405.91625 -377.1953125 404.875 C-386.36395999 393.21091023 -393.32352236 381.13994194 -399.52734375 367.69921875 C-401.51952752 363.39046176 -403.64714673 359.16226949 -405.8125 354.9375 C-421.75243744 323.05762511 -425.50251664 292.07339829 -426.47241211 256.7019043 C-426.53274078 254.64141044 -426.60182994 252.58115543 -426.67944336 250.52124023 C-426.79260395 247.49748387 -426.87766826 244.474029 -426.95703125 241.44921875 C-427.01610405 240.08793098 -427.01610405 240.08793098 -427.07637024 238.69914246 C-427.4877389 217.72103689 -408.70570049 207.14719489 -390.625 201.4375 C-375.51825494 197.19976372 -360.85098155 198.00259104 -346.75 204.9375 C-348.4 201.3075 -350.05 197.6775 -351.75 193.9375 C-352.8534375 194.42347656 -353.956875 194.90945313 -355.09375 195.41015625 C-360.37216302 197.141582 -364.7550669 197.33072096 -370.25 197.375 C-379.88254975 197.64147834 -388.51357763 199.06737084 -397.75 201.9375 C-399.71259766 202.51371094 -399.71259766 202.51371094 -401.71484375 203.1015625 C-413.24500147 206.67234061 -421.48457313 211.18587155 -429.75 219.9375 C-431.39253305 221.30045295 -433.04870665 222.6486414 -434.75 223.9375 C-434.01598904 233.16506638 -432.77127588 242.27913968 -431.4375 251.4375 C-431.21747314 252.97164551 -430.99744629 254.50579102 -430.77075195 256.08642578 C-429.72914553 263.3217027 -428.66376292 270.55180496 -427.53125 277.7734375 C-427.34602783 278.96904297 -427.16080566 280.16464844 -426.9699707 281.39648438 C-426.62817343 283.58925258 -426.27843609 285.7808062 -425.91870117 287.97070312 C-422.98713624 306.83760254 -422.98713624 306.83760254 -426.75 314.9375 C-447.90131085 312.52329587 -457.23722843 249.71713545 -460.88867188 232.86376953 C-461.91548522 228.18315383 -462.97977708 223.5113928 -464.046875 218.83984375 C-464.66150968 216.14124976 -465.27567675 213.44254983 -465.88964844 210.74380493 C-466.29134076 208.9791505 -466.69366745 207.21464032 -467.09667969 205.45028687 C-468.34999763 199.95344064 -469.56500532 194.44958328 -470.75 188.9375 C-471.09550903 187.40186401 -471.09550903 187.40186401 -471.44799805 185.83520508 C-473.26227588 176.74765306 -473.08670308 167.50582669 -473.06567383 158.27709961 C-473.06253286 155.4050427 -473.08597382 152.53403827 -473.11132812 149.66210938 C-473.16676007 133.81368061 -471.5191334 118.68436818 -466.9375 103.4375 C-466.68105713 102.57350586 -466.42461426 101.70951172 -466.16040039 100.81933594 C-463.92545836 93.3454609 -461.56454091 85.90903933 -459.171875 78.484375 C-457.81902208 74.15821897 -456.62448247 69.8114491 -455.4375 65.4375 C-449.17483477 44.22715268 -437.03095266 25.42534533 -423.75 7.9375 C-422.79521088 6.53242761 -421.85348073 5.11817466 -420.9375 3.6875 C-419.8779465 2.10219338 -418.8152761 0.51896689 -417.75 -1.0625 C-417.19699219 -1.89910156 -416.64398438 -2.73570312 -416.07421875 -3.59765625 C-410.26019592 -11.88176494 -403.23574542 -18.80766426 -396.02099609 -25.85668945 C-392.19161952 -29.59918598 -388.4423754 -33.33004138 -384.953125 -37.39453125 C-377.26590914 -46.19733088 -367.38737572 -52.57602676 -357.75 -59.0625 C-356.72519531 -59.76632813 -355.70039063 -60.47015625 -354.64453125 -61.1953125 C-265.60952729 -121.7805804 -123.69656486 -108.08699595 0 0 Z " transform="translate(712.75,157.0625)" style="fill: #050809;"/><path d="M0 0 C2.5163566 0.01075575 5.03200427 0.00002581 7.54833984 -0.01269531 C18.07105939 0.00404728 27.77307273 0.52922119 37.82568359 3.88574219 C42.23229503 5.45310949 42.23229503 5.45310949 46.38818359 5.26074219 C46.38818359 5.92074219 46.38818359 6.58074219 46.38818359 7.26074219 C50.01818359 7.26074219 53.64818359 7.26074219 57.38818359 7.26074219 C57.38818359 7.59074219 57.38818359 7.92074219 57.38818359 8.26074219 C56.39077148 8.33067383 55.39335937 8.40060547 54.36572266 8.47265625 C49.78856417 8.80270408 45.21353414 9.15654506 40.63818359 9.51074219 C39.06939453 9.6203125 37.50060547 9.72988281 35.88427734 9.84277344 C18.90425091 11.19265002 2.61525523 14.80659892 -5.61181641 31.26074219 C-6.24605629 38.72525777 -6.48442696 45.33267079 -0.04931641 50.19824219 C10.38014229 53.42189306 19.88263689 48.10799169 28.30615234 42.22167969 C53.26822752 26.33959891 92.60099673 25.64265763 117.38818359 40.26074219 C118.27248047 40.77378906 119.15677734 41.28683594 120.06787109 41.81542969 C127.8426125 46.5253455 134.59525528 52.24507385 141.38818359 58.26074219 C142.45939453 59.20820313 143.53060547 60.15566406 144.63427734 61.13183594 C149.52038236 65.52994045 154.19685989 69.93540605 158.41943359 74.97558594 C161.12740507 78.11876711 163.98316503 81.11393633 166.82568359 84.13574219 C176.39975697 94.4026318 184.65458187 105.45618904 192.72021484 116.92480469 C194.33218627 119.1823197 195.99484546 121.39322882 197.66943359 123.60449219 C209.24316077 139.36171339 205.64882414 153.61900895 201.75537109 171.61230469 C200.09089948 179.43323196 198.92974365 187.31498923 197.82080078 195.23120117 C195.08577958 214.16561349 188.55321119 229.34136872 176.38818359 244.26074219 C175.66759766 245.17210937 174.94701172 246.08347656 174.20458984 247.02246094 C169.36205312 253.07347385 164.21720304 258.7999462 158.95068359 264.48339844 C156.85272364 266.75725442 154.79256881 269.05100966 152.76318359 271.38574219 C152.22306641 272.00578125 151.68294922 272.62582031 151.12646484 273.26464844 C149.83182299 274.75130459 148.53762254 276.23834515 147.24365234 277.72558594 C143.24908107 282.25095203 139.22124786 286.46735962 134.60693359 290.35839844 C131.86102604 292.7127241 129.22544091 295.17378984 126.57568359 297.63574219 C121.0077822 302.7396518 115.34544108 307.61683867 109.38818359 312.26074219 C108.40084229 313.03224609 108.40084229 313.03224609 107.39355469 313.81933594 C91.98020061 325.77184512 75.24030625 337.54655843 56.38818359 343.26074219 C55.17517578 343.63714844 53.96216797 344.01355469 52.71240234 344.40136719 C27.03917059 351.61323447 -2.41626571 350.49982474 -17.69970703 326.03295898 C-20.05532077 322.1382954 -22.33859608 318.20387576 -24.61181641 314.26074219 C-33.78733761 298.66392999 -43.5888031 283.74608409 -54.52978516 269.33496094 C-85.7382867 228.22250621 -85.7382867 228.22250621 -79.11181641 212.76074219 C-74.03561695 207.68454273 -68.57441829 204.85633845 -61.61181641 203.26074219 C-61.28181641 201.61074219 -60.95181641 199.96074219 -60.61181641 198.26074219 C-72.44527782 198.81543569 -80.25782854 204.55276646 -85.61181641 215.26074219 C-85.75029907 218.17441738 -85.78100776 221.09411268 -85.73681641 224.01074219 C-85.71876953 225.55246094 -85.70072266 227.09417969 -85.68212891 228.68261719 C-85.65892578 229.86339844 -85.63572266 231.04417969 -85.61181641 232.26074219 C-86.20349609 231.51050781 -86.79517578 230.76027344 -87.40478516 229.98730469 C-89.16953834 227.80713173 -91.03220665 225.70635287 -92.92431641 223.63574219 C-99.88497358 215.67430383 -104.43686784 207.2997496 -107.61181641 197.26074219 C-108.22863281 195.48763672 -108.22863281 195.48763672 -108.85791016 193.67871094 C-111.94773159 184.4825955 -113.71307971 175.52658326 -115.03369141 165.95214844 C-115.20794673 162.46821779 -115.20794673 162.46821779 -116.61181641 161.26074219 C-117.351992 155.77953328 -117.85791318 150.27118002 -118.39624023 144.7668457 C-118.66677157 142.02471728 -118.95224835 139.28444201 -119.23876953 136.54394531 C-120.15333429 127.51350001 -120.84458972 118.48166739 -121.04541016 109.40527344 C-121.08593506 107.83753174 -121.12645996 106.26979004 -121.16821289 104.65454102 C-119.03394949 87.80050925 -98.30458701 78.0719212 -83.44384766 74.66308594 C-71.23558928 72.9286713 -58.72939901 73.67255523 -48.61181641 81.26074219 C-48.61181641 81.92074219 -48.61181641 82.58074219 -48.61181641 83.26074219 C-49.91119141 82.82761719 -51.21056641 82.39449219 -52.54931641 81.94824219 C-53.79261719 81.5421875 -53.79261719 81.5421875 -55.06103516 81.12792969 C-57.35375568 80.34847493 -59.61114752 79.46689013 -61.86181641 78.57324219 C-81.43046148 73.16611657 -99.32106528 82.05581241 -112.61181641 96.26074219 C-114.56398075 100.16507088 -115.11821631 102.98287471 -115.61181641 107.26074219 C-106.0943971 107.60333586 -97.16668363 106.32474994 -87.79931641 104.69824219 C-86.26025635 104.43446777 -84.72119629 104.17069336 -83.13549805 103.89892578 C-72.2251669 101.94014872 -61.83100934 99.27653682 -51.38916016 95.58105469 C-47.61181641 94.26074219 -47.61181641 94.26074219 -45.61181641 94.26074219 C-44.96278911 107.92637258 -46.35093817 121.09769917 -48.18896484 134.63720703 C-50.01153037 148.58909235 -51.69334202 162.209877 -45.61181641 175.26074219 C-45.32048828 176.14246094 -45.02916016 177.02417969 -44.72900391 177.93261719 C-41.39403348 184.8824157 -29.42702762 185.680815 -22.61181641 185.26074219 C-18.24347485 184.10376445 -18.24347485 184.10376445 -13.92431641 182.44824219 C-12.47669922 181.92617188 -11.02908203 181.40410156 -9.53759766 180.86621094 C-5.15091858 179.07225561 -1.53617875 176.87698375 2.38818359 174.26074219 C4.73583984 174.03027344 4.73583984 174.03027344 7.45068359 174.07324219 C8.43166016 174.08742188 9.41263672 174.10160156 10.42333984 174.11621094 C13.11351062 174.24735233 15.72015097 174.53142745 18.38818359 174.88574219 C28.19549525 175.96329713 37.17908645 174.11553018 42.82568359 165.57324219 C46.12766421 156.4597757 43.55373613 150.17648905 36.38818359 144.26074219 C30.08897849 140.95624115 21.76231031 138.73014715 15.63818359 143.32324219 C14.89568359 144.29261719 14.15318359 145.26199219 13.38818359 146.26074219 C7.84877651 152.97874653 7.84877651 152.97874653 4.32568359 155.13574219 C1.29691571 157.32676576 0.53634225 158.52761307 -1.11181641 161.76074219 C-4.1913776 167.66648295 -6.93843768 170.22142779 -13.86181641 170.32324219 C-26.00675138 167.606612 -34.86928963 162.04730901 -35.98681641 148.82324219 C-35.97179704 143.1459209 -34.57563487 138.01316957 -33.11181641 132.57324219 C-27.98585228 112.87940578 -27.25961687 89.61294173 -42.61181641 74.26074219 C-43.38525391 71.87792969 -43.38525391 71.87792969 -43.98681641 69.13574219 C-47.85785692 54.08831289 -57.26603663 44.49219458 -73.31884766 43.86230469 C-75.35397917 43.84958821 -77.3893344 43.85798879 -79.42431641 43.88574219 C-80.48948486 43.89516846 -81.55465332 43.90459473 -82.65209961 43.91430664 C-90.01239392 44.05586161 -96.66466474 44.69485989 -103.61181641 47.26074219 C-104.75263672 47.6590625 -105.89345703 48.05738281 -107.06884766 48.46777344 C-112.19627154 50.33897223 -116.21200284 51.96088201 -120.61181641 55.26074219 C-121.27181641 54.93074219 -121.93181641 54.60074219 -122.61181641 54.26074219 C-118.25694212 49.58070396 -113.88873947 44.9139014 -109.50048828 40.26513672 C-107.94279325 38.61199864 -106.39336308 36.95107696 -104.84619141 35.28808594 C-84.55595673 14.09083746 -57.55147098 7.1691807 -29.61181641 2.26074219 C-28.13600098 1.97602051 -28.13600098 1.97602051 -26.63037109 1.68554688 C-17.75675571 0.10408266 -9.00006093 -0.04573023 0 0 Z " transform="translate(412.61181640625,287.7392578125)" style="fill: #F4F7F6;"/><path d="M0 0 C1.26166992 0.27376465 2.52333984 0.5475293 3.82324219 0.82958984 C50.53133138 11.07648931 91.72035157 31.02761398 131 58 C132.13332764 58.77561279 132.13332764 58.77561279 133.28955078 59.56689453 C151.22043625 71.88309879 168.58717255 85.24165632 184.67578125 99.890625 C186.72042335 101.74626657 188.78784149 103.56756376 190.875 105.375 C205.70008145 118.32084578 219.64182845 131.79917445 231.625 147.4375 C232.44484375 148.48647461 232.44484375 148.48647461 233.28125 149.55664062 C250.38086943 171.83114488 250.45921263 200.48046847 244 227 C243.68289063 228.46695313 243.36578125 229.93390625 243.0390625 231.4453125 C236.22263686 261.1765307 224.11955674 307.88044326 202 330 C198.72328522 330 198.46709463 327.78180987 197 325 C196.28435177 321.99934896 195.67171784 318.97347738 195.125 315.9375 C191.8016736 298.29905459 188.01331225 280.24682711 180.1875 264 C178.1939373 259.83220798 177.47890241 256.68987831 178 252 C176.35 251.34 174.7 250.68 173 250 C172.22790717 247.85461952 171.45739586 245.70866987 170.6875 243.5625 C170.22472656 242.27859375 169.76195312 240.9946875 169.28515625 239.671875 C168.31916392 236.91189692 167.44806934 234.11841822 166.625 231.3125 C162.6011677 220.63386812 154.96777231 211.89635214 148 203 C145.43865562 199.62706685 142.87884801 196.25302216 140.32421875 192.875 C138.02836147 189.9242823 138.02836147 189.9242823 135.20703125 187.25 C133 185 133 185 133 183 C132.01 182.67 131.02 182.34 130 182 C128.2805599 180.38783335 126.62660583 178.70578692 125 177 C116.1377284 167.85642527 107.36316045 159.13390899 97.18359375 151.44921875 C84 141.30674847 84 141.30674847 84 136 C76.34497973 133.41529521 68.64926569 130.97217535 60.9375 128.5625 C59.12475586 127.98918945 59.12475586 127.98918945 57.27539062 127.40429688 C42.06661383 122.65709521 26.93282408 119.30130758 11.1875 116.875 C7.99334734 116.37330063 4.79933315 115.87071874 1.60546875 115.3671875 C0.10862549 115.13410889 -1.38821777 114.90103027 -2.93041992 114.66088867 C-6.25532864 114.12093259 -9.54897236 113.51396339 -12.8515625 112.85546875 C-18.73222116 111.75830152 -24.59348116 111.58866107 -30.5625 111.4375 C-32.68892014 111.37776196 -34.8152365 111.31416321 -36.94140625 111.24609375 C-37.86638916 111.22216553 -38.79137207 111.1982373 -39.74438477 111.17358398 C-42 111 -42 111 -44 110 C-69.67444753 108.02581141 -92.86209947 111.94476866 -116 123 C-118.11535156 123.97839844 -118.11535156 123.97839844 -120.2734375 124.9765625 C-129.13660746 129.21400185 -137.13372426 134.12623738 -145 140 C-145.89460938 140.64710938 -146.78921875 141.29421875 -147.7109375 141.9609375 C-154.20473492 146.85626171 -159.1714063 152.47779507 -164 159 C-164.6290625 159.83015625 -165.258125 160.6603125 -165.90625 161.515625 C-170.6802446 168.34159973 -173.1132156 175.56827979 -175.58203125 183.484375 C-176.86567513 187.57223265 -178.29905836 191.55556569 -179.8125 195.5625 C-181.71494076 200.80030966 -182.71253784 205.4423983 -183 211 C-182.36320312 211.43441406 -181.72640625 211.86882812 -181.0703125 212.31640625 C-177.85935711 216.47853145 -178.14921263 220.8074387 -177.875 225.9375 C-177.72973732 228.0353785 -177.58132451 230.13304136 -177.4296875 232.23046875 C-177.35975586 233.23513184 -177.28982422 234.23979492 -177.21777344 235.27490234 C-176.96287818 238.46452214 -176.53193749 241.59520149 -176 244.75 C-173.77649702 258.12631156 -172.63522104 271.4423819 -173 285 C-176.40811104 280.45585194 -177.94744526 275.94987777 -179.6875 270.625 C-180.03345215 269.57207764 -180.3794043 268.51915527 -180.73583984 267.43432617 C-190.00336181 238.68323172 -198.44950762 208.39079657 -199.53515625 178.08203125 C-199.57813339 176.94779221 -199.62111053 175.81355316 -199.66539001 174.64494324 C-199.75524895 172.25220885 -199.84339624 169.85940963 -199.92993164 167.46655273 C-200.06144962 163.8414523 -200.19924116 160.21663078 -200.33789062 156.59179688 C-200.42485498 154.25522229 -200.51145513 151.91863412 -200.59765625 149.58203125 C-200.63826675 148.51491409 -200.67887726 147.44779694 -200.72071838 146.3483429 C-200.98596054 138.89627552 -201.04392036 131.45646462 -201 124 C-202.31955598 143.6519587 -202.09900739 163.31580676 -202 183 C-206.99215219 173.01569562 -206.35531004 160.99183865 -206.3125 150.0625 C-206.30730347 147.89965454 -206.30730347 147.89965454 -206.30200195 145.69311523 C-206.14682081 130.30960515 -204.66127821 115.71501553 -200 101 C-199.67 101 -199.34 101 -199 101 C-199 104.3 -199 107.6 -199 111 C-198.63807496 108.87630763 -198.28568253 106.7509887 -197.9375 104.625 C-197.64166016 102.84996094 -197.64166016 102.84996094 -197.33984375 101.0390625 C-196.73065313 98.08549099 -196.73065313 98.08549099 -198 96 C-197.34 96 -196.68 96 -196 96 C-196.33 95.01 -196.66 94.02 -197 93 C-196.28125 90.859375 -196.28125 90.859375 -195 88 C-194.4740625 86.66453125 -193.948125 85.3290625 -193.40625 83.953125 C-172.04379701 30.76010559 -128.07241132 6.63865521 -73 -2 C-71.81446533 -2.18836426 -70.62893066 -2.37672852 -69.4074707 -2.57080078 C-46.33015874 -5.96751398 -22.72765138 -5.10163963 0 0 Z " transform="translate(452,167)" style="fill: #5D87A5;"/><path d="M0 0 C0.33 0 0.66 0 1 0 C0.99476318 0.77037598 0.98952637 1.54075195 0.98413086 2.33447266 C-4.35723442 99.17676115 -4.35723442 99.17676115 40 177 C39.49519072 183.6175907 37.11647796 188.96245673 34.4375 194.9375 C33.98640869 195.95658447 33.53531738 196.97566895 33.07055664 198.02563477 C29.29716264 206.4816342 25.3182438 214.8072845 21 223 C20.32710937 224.299375 19.65421875 225.59875 18.9609375 226.9375 C11.1792084 241.42566473 1.19284403 253.9957788 -10 266 C-11.45851971 267.66650357 -12.91684906 269.33317375 -14.375 271 C-36.09625012 294.96055426 -82.11521112 330.11669247 -116 317 C-111.04456504 319.922436 -106.70138156 320.56807715 -101 321 C-111.96479906 326.48239953 -122.39851818 326.43236242 -134.4375 326.3125 C-136.85932617 326.31733398 -136.85932617 326.31733398 -139.33007812 326.32226562 C-148.10060307 326.28293592 -156.42382113 325.85212167 -165 324 C-165.91773193 323.81348877 -166.83546387 323.62697754 -167.78100586 323.43481445 C-192.05615007 318.30518854 -213.63210546 308.40867849 -235 296 C-236.07378906 295.38640625 -237.14757812 294.7728125 -238.25390625 294.140625 C-261.59471073 280.08744317 -278.43391531 259.62027269 -293 237 C-291.51959637 232.55878911 -288.78246333 232.16483012 -284.625 230.1875 C-282.44390625 229.12595703 -282.44390625 229.12595703 -280.21875 228.04296875 C-278.8265625 227.36878906 -277.434375 226.69460938 -276 226 C-248.81045374 212.4388773 -232.52601504 189.53492381 -232.75 158.625 C-232.74226563 157.56539062 -232.73453125 156.50578125 -232.7265625 155.4140625 C-232.74382221 148.37209894 -233.55954829 141.89359034 -235 135 C-234.030625 135.86625 -233.06125 136.7325 -232.0625 137.625 C-199.23410687 165.57527849 -149.33222316 153.05367157 -115 134 C-113.73671875 133.30003906 -112.4734375 132.60007812 -111.171875 131.87890625 C-100.31855698 125.61479986 -90.59240898 118.14491882 -81.25 109.8125 C-78 107 -78 107 -76 107 C-75.01 105.02 -75.01 105.02 -74 103 C-72.23869662 101.41137342 -70.46796898 99.83236748 -68.66015625 98.296875 C-59.15559957 90.09029743 -50.25531136 81.40898574 -41.83984375 72.08984375 C-39.08032207 69.08739307 -36.22778077 66.22558661 -33.3125 63.375 C-28.11242117 58.24294546 -23.5023604 52.7474576 -19 47 C-19 51.26395208 -20.41389089 55.07304051 -21.625 59.125 C-23.55431859 65.70615757 -25.34155068 72.28235246 -26.85546875 78.97143555 C-34.61425171 113.17179815 -45.3941736 146.9324015 -57 180 C-57.38961914 181.11084961 -57.77923828 182.22169922 -58.18066406 183.36621094 C-66.40920562 206.57287307 -75.95106494 229.5086342 -88 251 C-89.021001 252.93741165 -90.04185042 254.8749032 -91.0625 256.8125 C-96.49193349 266.64778526 -102.91630082 275.33368932 -110.2578125 283.82421875 C-112.82890077 286.80184662 -115.33169737 289.82202572 -117.8125 292.875 C-129.44830938 307.16862915 -129.44830938 307.16862915 -139 303.4375 C-143.52770444 300.67843011 -146.39890609 297.87810113 -150 294 C-150.804375 293.195625 -151.60875 292.39125 -152.4375 291.5625 C-152.953125 291.046875 -153.46875 290.53125 -154 290 C-153.6284321 298.91762958 -147.59653672 307.13448776 -139 310 C-137.27490284 310.14491931 -135.54342563 310.22070366 -133.8125 310.25 C-132.91144531 310.27578125 -132.01039063 310.3015625 -131.08203125 310.328125 C-123.15967122 309.48467983 -119.01895358 306.64827738 -114.375 300.3125 C-113.43527344 299.05050781 -112.49554687 297.78851562 -111.52734375 296.48828125 C-110.69332031 295.33714844 -109.85929688 294.18601562 -109 293 C-107.98151932 291.66486871 -106.96121626 290.33112114 -105.9375 289 C-104.968125 287.68 -103.99875 286.36 -103 285 C-101.91332031 283.55173828 -101.91332031 283.55173828 -100.8046875 282.07421875 C-77.61308792 250.55836163 -62.67347665 212.74961011 -50 176 C-49.46028564 174.45022461 -49.46028564 174.45022461 -48.90966797 172.86914062 C-42.31362766 153.83847262 -36.56263671 134.61337214 -31.17114258 115.20947266 C-30.37351718 112.34254392 -29.5683629 109.47770162 -28.7565918 106.61474609 C-25.7176657 95.84266551 -22.99635156 85.02050452 -20.4375 74.125 C-20.03932008 72.44449551 -19.64112659 70.76399424 -19.24291992 69.08349609 C-17.24981494 60.62740412 -15.37836107 52.17072376 -13.8125 43.625 C-12.16505831 34.98157305 -9.31871338 27.12727927 -6 19 C-3.60482086 12.72431959 -1.48674974 6.56647801 0 0 Z " transform="translate(627,490)" style="fill: #F3F5F4;"/><path d="M0 0 C2.15037501 1.97505326 4.35695969 3.8479597 6.59765625 5.71875 C25.61658162 22.48894471 36.73498015 60.01415233 27.22265625 84.34375 C24.99440099 88.65424949 21.73391181 94.15625 16.34765625 94.15625 C15.92097656 92.97933594 15.49429687 91.80242187 15.0546875 90.58984375 C-3.95345979 39.82666369 -46.32930198 -16.84700354 -97.03515625 -38.6640625 C-99.87161478 -39.9425856 -102.55937546 -41.3929214 -105.27734375 -42.90625 C-114.97281076 -48.24697335 -134.42494538 -58.74366704 -144.71484375 -50.34375 C-147.20114583 -47.81199906 -147.20114583 -47.81199906 -145.65234375 -43.84375 C-142.45076572 -40.81659889 -139.29389021 -39.06416068 -135.21484375 -37.46875 C-134.15523437 -37.03691406 -133.095625 -36.60507813 -132.00390625 -36.16015625 C-129.82313236 -35.3036052 -127.63054748 -34.47634868 -125.42578125 -33.68359375 C-114.09252123 -29.34404337 -105.13934371 -22.22823676 -95.65234375 -14.84375 C-93.70328125 -13.35681641 -93.70328125 -13.35681641 -91.71484375 -11.83984375 C-82.47980779 -4.72117019 -73.8810091 2.90133691 -65.65234375 11.15625 C-64.96914063 11.80464844 -64.2859375 12.45304687 -63.58203125 13.12109375 C-56.8610413 19.5737552 -51.30610753 26.77036495 -45.65234375 34.15625 C-44.61012536 35.47168085 -43.56581181 36.7854541 -42.51953125 38.09765625 C-26.90645092 57.83699997 18.32378919 118.22785117 9.34765625 145.15625 C8.23390625 143.114375 8.23390625 143.114375 7.09765625 141.03125 C0.3131724 129.78703551 -9.11900697 120.49770092 -18.43310547 111.34765625 C-21.50763054 108.32473048 -24.48073422 105.3035351 -27.21484375 101.96875 C-32.29169394 95.97001653 -38.6465506 91.18124554 -44.65234375 86.15625 C-45.75449219 85.21136719 -46.85664062 84.26648438 -47.9921875 83.29296875 C-64.17215803 69.42722431 -81.31003713 57.01829971 -99.65234375 46.15625 C-100.75964844 45.50011719 -101.86695313 44.84398437 -103.0078125 44.16796875 C-128.87186832 29.11713401 -156.03810082 18.17915163 -185.11328125 11.2734375 C-188.8817957 10.34590296 -192.52223139 9.27575247 -196.21484375 8.09375 C-217.32609454 1.91116941 -240.18479262 0.97716737 -262.02734375 0.90625 C-263.60773438 0.885625 -265.188125 0.865 -266.81640625 0.84375 C-275.71130532 0.8143939 -283.87220346 1.45649037 -292.53759766 3.50878906 C-295.65234375 4.15625 -295.65234375 4.15625 -300.65234375 4.15625 C-300.98234375 4.81625 -301.31234375 5.47625 -301.65234375 6.15625 C-302.78671875 6.1975 -303.92109375 6.23875 -305.08984375 6.28125 C-333.97134 9.58587261 -368.15378526 31.62122624 -385.6328125 54.546875 C-387.83122385 57.38737554 -390.17161399 60.07014576 -392.52734375 62.78125 C-397.59856905 68.80234877 -401.59755595 75.23849639 -405.62109375 81.98046875 C-407.65234375 85.15625 -407.65234375 85.15625 -409.65234375 86.15625 C-406.01635621 65.2971636 -391.7728272 46.26309075 -377.65234375 31.15625 C-376.43841013 29.7652844 -375.22971259 28.36972441 -374.02734375 26.96875 C-369.00649659 21.22074566 -363.57753383 15.99109835 -357.79296875 11.0234375 C-356.32287797 9.74113204 -354.87583851 8.43206249 -353.44921875 7.1015625 C-330.65337714 -14.10913781 -301.30023 -31.42961796 -271.65234375 -40.84375 C-270.62786133 -41.16972168 -269.60337891 -41.49569336 -268.54785156 -41.83154297 C-251.93238124 -47.02601232 -235.31249647 -50.70590168 -218.11889648 -53.39819336 C-215.52999957 -53.80533635 -215.52999957 -53.80533635 -212.65234375 -54.84375 C-209.12039306 -55.10309487 -205.59869543 -55.31498007 -202.0625 -55.4921875 C-199.89385612 -55.61154226 -197.72523706 -55.7313488 -195.55664062 -55.8515625 C-192.14728101 -56.03628807 -188.73785442 -56.2175823 -185.32788086 -56.390625 C-182.03042989 -56.55983598 -178.73404728 -56.74379462 -175.4375 -56.9296875 C-173.9367971 -57.00018814 -173.9367971 -57.00018814 -172.40577698 -57.07211304 C-166.10180982 -57.43984255 -160.310926 -58.50547505 -154.22160339 -60.18415833 C-106.27880197 -72.4922459 -33.67601709 -31.16766082 0 0 Z " transform="translate(671.65234375,139.84375)" style="fill: #5D86A2;"/><path d="M0 0 C9.47716714 26.72882395 12.06153449 64.98813159 -10.75 85.9375 C-14.28891573 88.2146631 -17.98711956 90.05605978 -21.75 91.9375 C-21.80821255 97.45828883 -21.84366882 102.97899832 -21.875 108.5 C-21.89175781 110.06298828 -21.90851563 111.62597656 -21.92578125 113.23632812 C-21.93222656 114.74775391 -21.93867187 116.25917969 -21.9453125 117.81640625 C-21.95578613 119.2041626 -21.96625977 120.59191895 -21.97705078 122.02172852 C-21.6018594 128.49236789 -20.05876477 133.06097097 -16.0625 138.125 C6.34571203 167.9485878 7.37520499 203.5903505 -0.75 238.9375 C-1.16716005 240.88270676 -1.58381344 242.82802223 -2 244.7734375 C-7.43466449 269.3424846 -15.05744436 293.70985078 -24.75 316.9375 C-25.20133301 318.0193457 -25.65266602 319.10119141 -26.11767578 320.21582031 C-37.31335258 346.77369434 -37.31335258 346.77369434 -45.75 357.9375 C-46.38035156 358.77796875 -47.01070312 359.6184375 -47.66015625 360.484375 C-53.58706938 367.73784569 -61.88410828 375.74258019 -71.75 374.9375 C-71.75 376.5875 -71.75 378.2375 -71.75 379.9375 C-73.08333333 377.27083333 -74.41666667 374.60416667 -75.75 371.9375 C-77.07 371.2775 -78.39 370.6175 -79.75 369.9375 C-79.75 350.4675 -79.75 330.9975 -79.75 310.9375 C-81.73 310.9375 -83.71 310.9375 -85.75 310.9375 C-86.018125 312.236875 -86.28625 313.53625 -86.5625 314.875 C-87.42035603 318.7563486 -88.59585241 322.42640191 -89.91015625 326.1796875 C-91.00266621 329.76718531 -91.76135506 333.39917332 -92.5625 337.0625 C-94.49144576 345.43104414 -97.25332548 353.10494908 -100.75 360.9375 C-101.4615625 362.54625 -101.4615625 362.54625 -102.1875 364.1875 C-105.51065212 371.26725887 -109.6312715 377.04896272 -114.75 382.9375 C-115.3275 383.62457031 -115.905 384.31164062 -116.5 385.01953125 C-120.23132131 389.3986514 -124.2153465 393.46358243 -128.34375 397.46875 C-130.28086602 399.45618072 -132.13049012 401.52868764 -133.94921875 403.625 C-138.12076477 408.43029797 -142.56620275 412.93753828 -147.0625 417.4375 C-147.87267578 418.25992188 -148.68285156 419.08234375 -149.51757812 419.9296875 C-150.29166016 420.70570313 -151.06574219 421.48171875 -151.86328125 422.28125 C-152.56235596 422.98443359 -153.26143066 423.68761719 -153.98168945 424.41210938 C-155.75 425.9375 -155.75 425.9375 -157.75 425.9375 C-157.75 426.5975 -157.75 427.2575 -157.75 427.9375 C-159.64400357 429.59044857 -161.53825473 431.24311412 -163.43359375 432.89453125 C-164.87732815 434.16784169 -166.30932835 435.45474028 -167.72265625 436.76171875 C-176.08323187 444.445716 -208.85445059 474.38527471 -219.75 468.9375 C-218.52925781 468.18726563 -217.30851563 467.43703125 -216.05078125 466.6640625 C-188.5605942 449.63152023 -162.64490291 427.77396713 -141.61328125 403.078125 C-139.2869826 400.40556387 -136.85855356 397.83697191 -134.4375 395.25 C-123.00009126 382.79558501 -111.41995907 368.60957165 -104.75 352.9375 C-104.10417969 351.4215625 -104.10417969 351.4215625 -103.4453125 349.875 C-100.28848314 341.8054717 -98.77738358 333.91534851 -97.56640625 325.35546875 C-96.49903586 317.9451072 -94.99945074 310.61579325 -93.55078125 303.27246094 C-92.15812999 296.17919449 -90.89994664 289.07419177 -89.75 281.9375 C-89.09 282.2675 -88.43 282.5975 -87.75 282.9375 C-87.95625 281.7 -88.1625 280.4625 -88.375 279.1875 C-88.75 274.9375 -88.75 274.9375 -86.75 270.9375 C-75.29547523 288.11928715 -70.98626951 318.03417777 -67.42578125 337.93359375 C-66.81590157 341.20569403 -66.81590157 341.20569403 -64.75 344.9375 C-64.75 345.9275 -64.75 346.9175 -64.75 347.9375 C-42.25204566 343.74296614 -31.57802974 300.94127492 -24.828125 281.94873047 C-23.91028037 279.38516715 -22.95866027 276.83373745 -22 274.28515625 C-14.05090351 252.90125867 -8.56668724 229.75670243 -7.75 206.9375 C-7.68554688 205.71289062 -7.62109375 204.48828125 -7.5546875 203.2265625 C-7.12884698 189.68483383 -10.74581714 178.08733689 -15.9375 165.75 C-18.70595995 159.16926496 -20.37337465 153.51108514 -20.484375 146.3515625 C-20.95793178 140.26496511 -22.84387659 134.4675552 -24.49609375 128.61328125 C-25.75 123.9375 -25.75 123.9375 -26.67578125 119.03125 C-33.7936813 82.34341775 -57.36161074 44.94854315 -80.12695312 16.01171875 C-82.44797379 13.04550462 -84.6918863 10.02350603 -86.9375 7 C-90.94224991 1.63663671 -94.96613534 -3.36668193 -99.75 -8.0625 C-100.50796875 -8.866875 -101.2659375 -9.67125 -102.046875 -10.5 C-109.24846473 -18.02267972 -117.14038935 -24.1747102 -125.47119141 -30.36132812 C-129.36301134 -33.26664217 -133.20999304 -36.23038202 -137.0625 -39.1875 C-140.94673277 -42.16162702 -144.83625014 -45.1271876 -148.75 -48.0625 C-148.42 -49.0525 -148.09 -50.0425 -147.75 -51.0625 C-127.56623488 -49.75084892 -108.65582935 -31.50073567 -94.75 -18.0625 C-93.95078125 -17.30324219 -93.1515625 -16.54398437 -92.328125 -15.76171875 C-87.53384783 -11.1079635 -83.25876481 -6.17770727 -79.09765625 -0.953125 C-77.5687151 0.92943149 -75.99436211 2.77627046 -74.37109375 4.578125 C-54.91148366 26.32535337 -40.3410082 52.38485993 -29.76269531 79.42236328 C-28.19744384 83.3098321 -26.47847845 87.12012047 -24.75 90.9375 C-24.585 90.07125 -24.42 89.205 -24.25 88.3125 C-22.49481113 84.36332505 -20.19659753 82.80059538 -16.7109375 80.359375 C2.79268734 66.2173044 -5.94614228 32.31527323 -12.48657227 13.73828125 C-18.57663757 -2.71707226 -27.46124176 -13.80559056 -40.75 -25.0625 C-42.02037109 -26.14917969 -42.02037109 -26.14917969 -43.31640625 -27.2578125 C-49.4977924 -32.44560458 -55.86150778 -36.87444834 -62.75 -41.0625 C-63.67683594 -41.65289062 -64.60367187 -42.24328125 -65.55859375 -42.8515625 C-91.31902957 -59.13188995 -118.22657636 -71.48040703 -147.75 -79.0625 C-148.65637207 -79.30911377 -149.56274414 -79.55572754 -150.49658203 -79.80981445 C-157.87695303 -81.76358453 -165.16246688 -82.9455121 -172.75 -83.75 C-173.92771973 -83.87665039 -175.10543945 -84.00330078 -176.31884766 -84.13378906 C-186.51726024 -85.16152533 -196.49791666 -85.3828776 -206.75 -85.0625 C-209.0084375 -85.05089844 -209.0084375 -85.05089844 -211.3125 -85.0390625 C-223.55007259 -84.78080204 -235.4935677 -83.04253655 -247.5625 -81.125 C-248.40182068 -80.99180359 -249.24114136 -80.85860718 -250.105896 -80.72137451 C-258.08320977 -79.44382569 -265.91734543 -78.05049393 -273.75 -76.0625 C-274.84957031 -75.91683594 -275.94914063 -75.77117187 -277.08203125 -75.62109375 C-303.35148854 -71.62052677 -330.94542453 -60.45167124 -353.75 -47.0625 C-354.56259277 -46.58554688 -355.37518555 -46.10859375 -356.21240234 -45.6171875 C-372.95027129 -35.65900418 -388.05462842 -23.81078608 -402.75 -11.0625 C-403.90435547 -10.07636719 -403.90435547 -10.07636719 -405.08203125 -9.0703125 C-409.52012104 -5.25168839 -413.65250145 -1.23730985 -417.75 2.9375 C-419.41666667 4.60416667 -421.08333333 6.27083333 -422.75 7.9375 C-417.86646367 -6.52105982 -404.01106496 -18.15676166 -393.38671875 -28.46875 C-390.43882499 -31.33829343 -387.64423791 -34.25741931 -384.96484375 -37.37890625 C-377.27525514 -46.18969855 -367.39363024 -52.57181713 -357.75 -59.0625 C-356.72519531 -59.76632813 -355.70039063 -60.47015625 -354.64453125 -61.1953125 C-265.60952729 -121.7805804 -123.69656486 -108.08699595 0 0 Z " transform="translate(712.75,157.0625)" style="fill: #4F7B9A;"/><path d="M0 0 C2.19537595 4.34746279 3.03691425 7.49788886 2.5 12.4375 C1.51 12.7675 0.52 13.0975 -0.5 13.4375 C-0.77763184 14.31422363 -1.05526367 15.19094727 -1.34130859 16.09423828 C-2.40644866 19.16756909 -3.62622823 22.00343383 -5.0390625 24.9296875 C-5.532854 25.95634521 -6.02664551 26.98300293 -6.53540039 28.04077148 C-7.05996826 29.12044189 -7.58453613 30.2001123 -8.125 31.3125 C-8.66697021 32.43148682 -9.20894043 33.55047363 -9.76733398 34.70336914 C-10.85095722 36.93712421 -11.93644739 39.1699747 -13.02392578 41.40185547 C-14.25385016 43.93127653 -15.47186828 46.46574607 -16.68359375 49.00390625 C-23.84435616 63.75716104 -32.30679821 77.58273996 -42.5 90.4375 C-43.15484375 91.28441406 -43.8096875 92.13132812 -44.484375 93.00390625 C-48.82255046 98.54809448 -53.45577458 103.76320659 -58.22265625 108.94140625 C-60.7403581 111.70094567 -63.14746394 114.53603885 -65.5 117.4375 C-66.16 117.4375 -66.82 117.4375 -67.5 117.4375 C-68.16 118.7575 -68.82 120.0775 -69.5 121.4375 C-86.37072122 139.83835641 -110.34389091 152.81307269 -132.5 163.4375 C-133.428125 163.89769531 -134.35625 164.35789062 -135.3125 164.83203125 C-151.31115246 172.51431102 -167.64269118 176.82312292 -185.375 176.75 C-186.75381348 176.74581055 -188.13262695 176.74162109 -189.55322266 176.73730469 C-200.15892973 176.62044424 -210.11367199 175.68995668 -220.5 173.4375 C-222.69462891 172.98503906 -222.69462891 172.98503906 -224.93359375 172.5234375 C-232.71512389 170.81580466 -240.05669883 168.56999963 -247.53588867 165.8515625 C-251.75944773 164.34495081 -256.006144 162.92906366 -260.265625 161.52734375 C-309.90778639 145.09355623 -309.90778639 145.09355623 -327.5 131.4375 C-325.5 130.4375 -325.5 130.4375 -323.41479492 131.44384766 C-281.09924517 151.74432689 -237.36490923 161.16244077 -190.89160156 149.98461914 C-187.78100344 149.27301743 -184.66482897 148.83405688 -181.5 148.4375 C-148.65288964 143.83738385 -118.89750021 128.41457035 -95.39599609 105.27587891 C-93.4178456 103.35784218 -91.3991362 101.49331604 -89.36328125 99.63671875 C-74.44095997 86.00790872 -63.22713216 71.72003381 -54.5 53.4375 C-53.70868713 51.81102574 -52.91699169 50.18473757 -52.125 48.55859375 C-51.29089277 46.83110263 -50.4575601 45.10323729 -49.625 43.375 C-49.01615967 42.12396484 -49.01615967 42.12396484 -48.39501953 40.84765625 C-46.16874043 36.34411981 -46.16874043 36.34411981 -45.5 31.4375 C-50.0917886 38.9310439 -54.54820182 46.42890215 -58.5625 54.25 C-61.92983453 60.65126961 -65.80644622 65.96784678 -70.5 71.4375 C-71.75365727 73.03881013 -73.00358235 74.64304831 -74.25 76.25 C-88.75358852 94.4375 -88.75358852 94.4375 -92.5 94.4375 C-92.5 95.0975 -92.5 95.7575 -92.5 96.4375 C-109.4072273 111.39389338 -126.27942509 123.59376962 -146.625 133.5 C-147.44282959 133.90653809 -148.26065918 134.31307617 -149.10327148 134.73193359 C-155.02950156 137.55512461 -155.02950156 137.55512461 -159.5 136.4375 C-158.47003906 135.86644531 -157.44007813 135.29539062 -156.37890625 134.70703125 C-118.29131334 113.02640144 -91.68489098 81.29700129 -70.5 43.4375 C-69.30503906 41.31634766 -69.30503906 41.31634766 -68.0859375 39.15234375 C-63.40613209 30.6048641 -59.51052883 21.95899775 -56.06176758 12.85961914 C-52.87799306 4.49981549 -51.27736482 4.37375225 -42.5 3.4375 C-40.81624835 2.81524395 -39.14232772 2.16205635 -37.5 1.4375 C-36.51 1.4375 -35.52 1.4375 -34.5 1.4375 C-35.5 -1.30785599 -35.5 -1.30785599 -40.5 -0.5625 C-34.797478 -11.96754401 -5.83194504 -10.87009757 0 0 Z " transform="translate(725.5,666.5625)" style="fill: #F2F4F2;"/><path d="M0 0 C-0.41038343 6.47819551 -2.2777378 11.21902822 -5.5 16.75 C-5.95068848 17.53930908 -6.40137695 18.32861816 -6.86572266 19.1418457 C-10.75709234 25.83197145 -15.13957927 31.97679919 -20 38 C-21.07760456 39.35484742 -22.15437514 40.71035844 -23.23046875 42.06640625 C-31.92605881 53 -31.92605881 53 -34 53 C-34.66 54.32 -35.32 55.64 -36 57 C-48.75719038 70.78514581 -66.6690065 80.38580412 -85 84 C-85.88558594 84.18433594 -86.77117187 84.36867188 -87.68359375 84.55859375 C-114.87730669 88.17801608 -134.14836176 80.40196632 -153.09765625 60.91015625 C-157.23219318 56.7586397 -161.72383744 53.01129864 -166.3125 49.375 C-170.47375451 45.6976123 -173.35845989 42.54931738 -171 37 C-166.1818704 31.80149175 -160.55066749 30.11673956 -154 28 C-152.91589844 27.5978125 -151.83179688 27.195625 -150.71484375 26.78125 C-142.24537696 23.81014293 -134.12632908 22.36219966 -125.25 21.25 C-114.05924409 19.83574177 -103.34347741 17.4906927 -92.4375 14.625 C-78.93459421 11.08323063 -65.49706766 8.37986785 -51.71557617 6.18164062 C-40.70427147 4.3918571 -29.93697588 2.00265646 -19.14477539 -0.81689453 C-4.57237264 -4.57237264 -4.57237264 -4.57237264 0 0 Z " transform="translate(526,478)" style="fill: #050606;"/><path d="M0 0 C0.98226562 0.3206543 1.96453125 0.64130859 2.9765625 0.97167969 C50.37166868 16.46987941 97.04809044 39.76591471 138.03198242 67.99169922 C141.811104 70.54883125 145.6609799 72.98148695 149.53662109 75.38916016 C175.58796749 92.42452027 175.58796749 92.42452027 173 102 C159.75353575 103.35168003 147.53436784 95.91008761 136.14868164 90.06494141 C124.52485575 84.14512909 112.58102841 78.99595144 100.62890625 73.78125 C93.92626076 70.85635071 87.25860238 67.86324969 80.60571289 64.82714844 C22.80083893 38.32059267 22.80083893 38.32059267 -37.3125 17.9375 C-44.1845736 15.88824412 -51.26216111 11.84865556 -52.4375 4.125 C-49.33798222 -18.01441269 -12.27118607 -4.11256906 0 0 Z " transform="translate(796,694)" style="fill: #070808;"/><path d="M0 0 C17.90217609 16.65763979 24.60607707 41.74343866 24.4375 65.375 C24.42614014 67.62074829 24.42614014 67.62074829 24.41455078 69.91186523 C24.23179477 82.32926894 22.7755734 93.92539904 20 106 C19.58283995 107.94520676 19.16618656 109.89052223 18.75 111.8359375 C13.31533551 136.4049846 5.69255564 160.77235078 -4 184 C-4.45133301 185.0818457 -4.90266602 186.16369141 -5.36767578 187.27832031 C-16.56335258 213.83619434 -16.56335258 213.83619434 -25 225 C-25.94552734 226.26070312 -25.94552734 226.26070312 -26.91015625 227.546875 C-32.83706938 234.80034569 -41.13410828 242.80508019 -51 242 C-51 243.65 -51 245.3 -51 247 C-52.33333333 244.33333333 -53.66666667 241.66666667 -55 239 C-56.32 238.34 -57.64 237.68 -59 237 C-59 217.53 -59 198.06 -59 178 C-60.98 178 -62.96 178 -65 178 C-65.268125 179.299375 -65.53625 180.59875 -65.8125 181.9375 C-66.67035603 185.8188486 -67.84585241 189.48890191 -69.16015625 193.2421875 C-70.25266621 196.82968531 -71.01135506 200.46167332 -71.8125 204.125 C-73.74144576 212.49354414 -76.50332548 220.16744908 -80 228 C-80.474375 229.0725 -80.94875 230.145 -81.4375 231.25 C-84.76065212 238.32975887 -88.8812715 244.11146272 -94 250 C-94.86625 251.03060547 -94.86625 251.03060547 -95.75 252.08203125 C-99.48132131 256.4611514 -103.4653465 260.52608243 -107.59375 264.53125 C-109.53086602 266.51868072 -111.38049012 268.59118764 -113.19921875 270.6875 C-117.37076477 275.49279797 -121.81620275 280.00003828 -126.3125 284.5 C-127.12267578 285.32242187 -127.93285156 286.14484375 -128.76757812 286.9921875 C-129.54166016 287.76820313 -130.31574219 288.54421875 -131.11328125 289.34375 C-131.81235596 290.04693359 -132.51143066 290.75011719 -133.23168945 291.47460938 C-135 293 -135 293 -137 293 C-137 293.66 -137 294.32 -137 295 C-138.89400357 296.65294857 -140.78825473 298.30561412 -142.68359375 299.95703125 C-144.12732815 301.23034169 -145.55932835 302.51724028 -146.97265625 303.82421875 C-155.33323187 311.508216 -188.10445059 341.44777471 -199 336 C-197.16888672 334.87464844 -197.16888672 334.87464844 -195.30078125 333.7265625 C-167.8105942 316.69402023 -141.89490291 294.83646713 -120.86328125 270.140625 C-118.5369826 267.46806387 -116.10855356 264.89947191 -113.6875 262.3125 C-102.25009126 249.85808501 -90.66995907 235.67207165 -84 220 C-83.56945312 218.989375 -83.13890625 217.97875 -82.6953125 216.9375 C-79.53848314 208.8679717 -78.02738358 200.97784851 -76.81640625 192.41796875 C-75.74903586 185.0076072 -74.24945074 177.67829325 -72.80078125 170.33496094 C-71.40812999 163.24169449 -70.14994664 156.13669177 -69 149 C-68.34 149.33 -67.68 149.66 -67 150 C-67.20625 148.7625 -67.4125 147.525 -67.625 146.25 C-68 142 -68 142 -66 138 C-54.54547523 155.18178715 -50.23626951 185.09667777 -46.67578125 204.99609375 C-46.06590157 208.26819403 -46.06590157 208.26819403 -44 212 C-44 212.99 -44 213.98 -44 215 C-21.50204566 210.80546614 -10.82802974 168.00377492 -4.078125 149.01123047 C-3.16028037 146.44766715 -2.20866027 143.89623745 -1.25 141.34765625 C6.69909649 119.96375867 12.18331276 96.81920243 13 74 C13.06445312 72.77539062 13.12890625 71.55078125 13.1953125 70.2890625 C13.61984477 56.78893625 10.04881058 45.2718357 4.8125 33 C1.42178573 25.0326264 -3.15954381 13.31908761 1 5 C0.72057545 3.32345271 0.39171753 1.65391846 0 0 Z " transform="translate(692,290)" style="fill: #5A829A;"/><path d="M0 0 C1.30735107 0.11746582 2.61470215 0.23493164 3.96166992 0.35595703 C18.01122727 1.75653038 31.3738576 5.10675389 44.9375 8.9375 C46.34 9.33300049 47.7425 9.72850098 49.1875 10.13598633 C59.77433785 13.16821603 69.99990883 16.6736152 80.25 20.6875 C81.56871094 21.15414062 82.88742187 21.62078125 84.24609375 22.1015625 C113.51029265 32.48469749 140.84455017 49.55356734 164.5546875 69.45703125 C167.68732188 72.0493997 170.90382045 74.51862982 174.125 77 C181.19404932 82.54164344 187.72907335 88.51786906 194.25 94.6875 C195.62766248 95.96358368 197.0066325 97.23825678 198.38671875 98.51171875 C213.75428093 112.73671125 227.0586933 127.66810773 239.25 144.6875 C240.03761719 145.78320312 240.82523438 146.87890625 241.63671875 148.0078125 C243.74829239 151.51517211 243.97136254 154.64725679 244.25 158.6875 C243.528125 157.945 242.80625 157.2025 242.0625 156.4375 C239.41513453 153.73711342 239.41513453 153.73711342 236.875 151.875 C234.11980508 149.57900423 231.92319188 147.01596281 229.59765625 144.296875 C221.73597121 135.55876251 213.25433996 127.23792819 204.25 119.6875 C203.22777344 118.79933594 202.20554687 117.91117187 201.15234375 116.99609375 C183.80005659 101.94975837 165.51737245 88.02326523 146.47363281 75.18847656 C144.0578699 73.55781007 141.65037931 71.91526146 139.2421875 70.2734375 C121.45794787 58.20963247 103.36507772 47.96744178 83.86499023 38.93286133 C81.38369525 37.75117094 78.96245245 36.48776522 76.53125 35.20703125 C60.35177946 27.07990611 41.67624856 22.11915192 24.0625 18.1875 C23.08804932 17.96908447 22.11359863 17.75066895 21.10961914 17.52563477 C2.92617151 13.72724805 -15.02179456 12.12609198 -33.5625 12.25 C-34.56536041 12.25370605 -35.56822083 12.25741211 -36.60147095 12.26123047 C-51.94032012 12.34169576 -66.80817774 12.92063294 -81.75 16.6875 C-82.8421582 16.96126465 -83.93431641 17.2350293 -85.05957031 17.51708984 C-102.22473182 21.96133949 -120.1124301 27.35509772 -134.75 37.6875 C-135.41 37.3575 -136.07 37.0275 -136.75 36.6875 C-97.35916717 4.64072075 -49.46320232 -4.4660866 0 0 Z " transform="translate(440.75,146.3125)" style="fill: #567F9C;"/><path d="M0 0 C-0.50768319 4.4422279 -2.15821768 6.6253835 -5 10 C-5.33 10.99 -5.66 11.98 -6 13 C-7.6595473 14.67375575 -9.32733603 16.33935229 -11 18 C-12.54361146 20.03006648 -14.040701 22.09600468 -15.5 24.1875 C-16.36496094 25.41339844 -17.22992187 26.63929688 -18.12109375 27.90234375 C-18.58370605 28.56089355 -19.04631836 29.21944336 -19.52294922 29.89794922 C-33.91976589 50.38664204 -33.91976589 50.38664204 -40.97265625 57.84765625 C-42.31594671 59.27377001 -43.61714037 60.74082612 -44.87109375 62.24609375 C-63.05259657 84.05633726 -96.71018401 98.81220204 -125 90 C-129.78218391 87.86966499 -134.40601255 85.50825008 -139 83 C-139.33 84.32 -139.66 85.64 -140 87 C-145.4729259 94.52527312 -152.19759189 100.71130437 -162 98 C-168.01721831 88.97417254 -162.90569661 79.38515332 -156.75 72.0625 C-155.8425 71.051875 -154.935 70.04125 -154 69 C-156.99894307 68.32859483 -159.99908583 67.66253949 -163 67 C-163.80824219 66.81824219 -164.61648438 66.63648438 -165.44921875 66.44921875 C-182.55819337 63.43615277 -200.86412114 68.75472809 -217 74 C-218.49660156 74.47695313 -219.99320313 74.95390625 -221.53515625 75.4453125 C-229.69007866 78.09652983 -237.6226296 81.01874829 -245.57421875 84.22680664 C-250.59873591 86.2398841 -255.63912965 88.20945596 -260.68359375 90.171875 C-262.60711391 90.92101613 -264.53061619 91.67020316 -266.45410156 92.41943359 C-267.43189575 92.80025085 -268.40968994 93.18106812 -269.41711426 93.57342529 C-289.17337648 101.25250764 -289.17337648 101.25250764 -308.75 109.375 C-335.90945486 120.94824729 -363.88056052 130.09474356 -393 135 C-394.31097656 135.22816406 -395.62195313 135.45632813 -396.97265625 135.69140625 C-421.93314396 139.44466571 -458.4639384 141.22228664 -471.08984375 114.4296875 C-477.6237939 96.98712529 -472.46279047 78.41540021 -462 64 C-461.34 63.01 -460.68 62.02 -460 61 C-459.34 61 -458.68 61 -458 61 C-458 60.34 -458 59.68 -458 59 C-453.4491666 56.08746662 -450.45318018 54.46798242 -445 55 C-447.15568843 59.31137686 -449.3090383 61.0158182 -453 64 C-453.33 64.66 -453.66 65.32 -454 66 C-454.66 66 -455.32 66 -456 66 C-456.66 67.32 -457.32 68.64 -458 70 C-458.474375 70.91394531 -458.94875 71.82789063 -459.4375 72.76953125 C-460.2109375 74.27580078 -460.2109375 74.27580078 -461 75.8125 C-461.515625 76.80894531 -462.03125 77.80539062 -462.5625 78.83203125 C-469.26368352 93.60012863 -467.3920255 108.77408765 -457 121 C-445.79218548 129.56130355 -430.56551198 129.76179961 -417 130 C-416.15260254 130.02408936 -415.30520508 130.04817871 -414.43212891 130.07299805 C-407.4712354 130.19585202 -400.85901218 129.46033249 -394 128.3125 C-392.35717041 128.04022583 -392.35717041 128.04022583 -390.68115234 127.76245117 C-366.2943993 123.57103361 -342.8685478 115.29169938 -320 106 C-316.17202562 104.45991668 -312.34182609 102.92539479 -308.51171875 101.390625 C-306.970214 100.77243393 -306.970214 100.77243393 -305.39756775 100.14175415 C-263.67807311 83.41211315 -263.67807311 83.41211315 -246.54052734 76.95996094 C-244.04973697 76.01879356 -241.56565668 75.06145152 -239.08203125 74.1015625 C-230.30324668 70.74353779 -221.45390616 67.83552555 -212.4375 65.1875 C-211.44991699 64.89721924 -210.46233398 64.60693848 -209.44482422 64.30786133 C-183.464225 56.86003095 -155.79007068 56.49019987 -134.625 75.75 C-115.7060559 92.71181195 -87.66549396 85.10316065 -68.2421875 73.328125 C-51.78611072 62.2264135 -40.55002105 46.78125864 -29.69921875 30.51074219 C-26.95936005 26.46236476 -23.99643527 22.5957484 -21.02734375 18.71484375 C-17.8622843 14.47646934 -14.9084677 10.09585278 -11.9453125 5.71484375 C-8.286644 0.60887064 -6.326094 -1.5815235 0 0 Z " transform="translate(933,845)" style="fill: #070908;"/><path d="M0 0 C-0.82982205 14.38358215 -21.25181772 17.23041755 -33 20 C-40.94656502 21.4623887 -48.95500302 22.08440527 -57.00195312 22.6953125 C-58.05318359 22.77523437 -59.10441406 22.85515625 -60.1875 22.9375 C-61.23228516 23.01613281 -62.27707031 23.09476562 -63.35351562 23.17578125 C-69.63248518 23.68672092 -75.45134437 24.61415806 -81.5078125 26.40234375 C-88.84686667 28.16233636 -93.15123405 28.06095743 -98 22 C-91.24532436 -15.15071603 -22.30357872 -31.96846283 0 0 Z " transform="translate(527,339)" style="fill: #040505;"/><path d="M0 0 C1.01650635 0.32540771 2.0330127 0.65081543 3.08032227 0.98608398 C21.93966558 7.29780391 39.86482715 16.16703125 57.58154297 25.11889648 C60.60715272 26.64756041 63.63715595 28.16722856 66.66796875 29.68554688 C68.63046195 30.67137029 70.59271095 31.65768002 72.5546875 32.64453125 C73.44227753 33.0904512 74.32986755 33.53637115 75.24435425 33.99580383 C80.80304255 36.80671001 86.25696186 39.76117015 91.6875 42.8125 C93.24172345 43.66360838 94.79629854 44.51407572 96.3515625 45.36328125 C140.74777942 69.93305884 140.74777942 69.93305884 145.6875 79.8125 C137.5091476 77.64024424 130.30874431 74.39521722 122.75 70.625 C113.5560251 66.11777328 104.35967128 61.89456899 94.88671875 58.0078125 C88.26653754 55.25564664 81.77019482 52.22915654 75.25 49.25 C57.89987753 41.35582753 40.33160097 34.02166303 22.6875 26.8125 C21.30449707 26.24692383 19.92149414 25.68134766 18.49658203 25.09863281 C1.98098124 18.36511996 -14.55389089 11.89666731 -31.546875 6.45703125 C-53.3125 -0.53291749 -53.3125 -0.53291749 -53.3125 -7.1875 C-35.17241721 -12.76906393 -17.2979796 -5.62516727 0 0 Z " transform="translate(804.3125,703.1875)" style="fill: #F0F3F1;"/><path d="M0 0 C0 5.29359417 -6.19421262 8.61216085 -10 12 C-10.97710937 12.87785156 -11.95421875 13.75570313 -12.9609375 14.66015625 C-43.82568355 41.67652716 -90.99785254 61.42070842 -128.9375 37.6875 C-131.30192833 36.1405722 -133.65997075 34.58359404 -136 33 C-132.82834021 29.82834021 -128.65928474 30.25375561 -124.375 29.875 C-123.4778125 29.78863281 -122.580625 29.70226562 -121.65625 29.61328125 C-119.43824542 29.40091911 -117.21920461 29.19943139 -115 29 C-115 29.66 -115 30.32 -115 31 C-111.47825081 31.4472136 -111.47825081 31.4472136 -110 27 C-100.42857143 25.71428571 -100.42857143 25.71428571 -96 27 C-96 26.34 -96 25.68 -96 25 C-92.29194695 23.26957524 -89.74475439 22.87630683 -85.6875 23.1875 C-79.84315682 23.3210401 -76.77707393 21.4006289 -72 18 C-68.24707906 16.48439731 -66.08485599 16 -62 16 C-62 16.66 -62 17.32 -62 18 C-56.35733494 18 -56.46061805 17.79551657 -53 14 C-49 12 -49 12 -44.125 12.6875 C-38.6826203 13.39668271 -37.00239737 11.73557087 -33 8 C-27.86015204 6.55723566 -25.27130182 6.76416529 -21 10 C-20.34 8.68 -19.68 7.36 -19 6 C-15.91796875 4.296875 -15.91796875 4.296875 -12.1875 2.75 C-10.96417969 2.22921875 -9.74085938 1.7084375 -8.48046875 1.171875 C-5 0 -5 0 0 0 Z " transform="translate(508,489)" style="fill: #F4F7F6;"/><path d="M0 0 C3 5.33333333 3 5.33333333 3 9 C1.741875 8.54625 0.48375 8.0925 -0.8125 7.625 C-25.1952041 -0.41367276 -55.6927923 5.55218573 -72.5625 26.125 C-75.72385528 32.44771055 -76.24754249 37.83056355 -76.046875 44.83984375 C-76.02740814 45.79079926 -76.00794128 46.74175476 -75.98788452 47.7215271 C-75.92070307 50.79394429 -75.83659039 53.86557279 -75.75 56.9375 C-75.72355408 57.98022064 -75.69710815 59.02294128 -75.66986084 60.09725952 C-74.84143826 92.6478607 -72.02551175 122.41646188 -58.21459961 152.37158203 C-57.78542236 153.31759277 -57.35624512 154.26360352 -56.9140625 155.23828125 C-56.5217041 156.08430908 -56.1293457 156.93033691 -55.72509766 157.80200195 C-55 160 -55 160 -56 163 C-81.28767513 157.85674404 -96.83702731 114.95476773 -104 93 C-104.32162109 92.03175293 -104.64324219 91.06350586 -104.97460938 90.06591797 C-111.28710656 70.69318389 -114.52926517 51.19029062 -117 31 C-117.1141626 30.10337646 -117.2283252 29.20675293 -117.34594727 28.28295898 C-117.90887315 23.64608479 -118.107831 19.10659351 -118.0625 14.4375 C-118.05347656 13.21933594 -118.04445312 12.00117188 -118.03515625 10.74609375 C-118.02355469 9.83988281 -118.01195312 8.93367188 -118 8 C-115.02289978 10.97710022 -114.96414876 14.07717836 -114.1171875 18.1796875 C-113.75562207 19.89704266 -113.39370989 21.61432485 -113.03149414 23.33154297 C-112.74920456 24.68817047 -112.74920456 24.68817047 -112.46121216 26.07220459 C-107.65673103 49.04337203 -101.90585901 71.46063702 -93.9375 93.5625 C-93.55021729 94.65095215 -93.16293457 95.7394043 -92.76391602 96.86083984 C-87.92092055 110.68419696 -87.92092055 110.68419696 -77 119 C-74.68712537 108.97170378 -76.06468407 98.66351164 -77.6796875 88.62890625 C-77.85251251 87.50411362 -78.02533752 86.37932098 -78.20339966 85.22044373 C-78.7514701 81.66630725 -79.31283087 78.11443078 -79.875 74.5625 C-80.24440469 72.18699108 -80.61290111 69.81134074 -80.98046875 67.43554688 C-81.67983366 62.92040069 -82.38134835 58.40559941 -83.08496094 53.89111328 C-83.81951157 49.16719282 -84.55365025 44.44341125 -85.2578125 39.71484375 C-85.40621582 38.72476318 -85.55461914 37.73468262 -85.70751953 36.71459961 C-87.09461691 23.84052968 -74.09347459 15.07435033 -63 10 C-47.96552258 3.91103664 -33.88870676 0.66171746 -17.72583008 0.46557617 C-11.23640876 0.32413484 -4.26046051 -4.26046051 0 0 Z " transform="translate(363,353)" style="fill: #507F9C;"/><path d="M0 0 C20.18376512 1.31165108 39.09417065 19.56176433 53 33 C53.79921875 33.75925781 54.5984375 34.51851562 55.421875 35.30078125 C60.21615217 39.9545365 64.49123519 44.88479273 68.65234375 50.109375 C70.1812849 51.99193149 71.75563789 53.83877046 73.37890625 55.640625 C92.83851634 77.38785337 107.4089918 103.44735993 117.98730469 130.48486328 C119.55255616 134.3723321 121.27152155 138.18262047 123 142 C124.32 141.67 125.64 141.34 127 141 C126.67 141.66 126.34 142.32 126 143 C125.72138739 148.43252382 125.76813698 153.87367386 125.75 159.3125 C125.729375 160.81619141 125.70875 162.31988281 125.6875 163.86914062 C125.65573799 173.00468768 126.44061932 181.21684631 129 190 C128.01 190.33 127.02 190.66 126 191 C125.74605469 189.91203125 125.49210938 188.8240625 125.23046875 187.703125 C124.51169376 184.63419806 123.78740584 181.56655882 123.05859375 178.5 C122.46675371 175.98413386 121.88610985 173.46533005 121.34765625 170.9375 C113.05182995 133.63339221 90.99489391 96.78196582 67.62304688 67.07421875 C65.30202621 64.10800462 63.0581137 61.08600603 60.8125 58.0625 C56.80775009 52.69913671 52.78386466 47.69581807 48 43 C47.24203125 42.195625 46.4840625 41.39125 45.703125 40.5625 C38.50153527 33.03982028 30.60961065 26.8877898 22.27880859 20.70117188 C18.38698866 17.79585783 14.54000696 14.83211798 10.6875 11.875 C6.80326723 8.90087298 2.91374986 5.9353124 -1 3 C-0.67 2.01 -0.34 1.02 0 0 Z " transform="translate(565,106)" style="fill: #5583A5;"/><path d="M0 0 C1.65322266 1.39605469 1.65322266 1.39605469 3.33984375 2.8203125 C6.91497433 5.85587397 10.46161551 8.92172765 14 12 C14.82113281 12.70640625 15.64226563 13.4128125 16.48828125 14.140625 C30.19441575 26.16604179 42.75435494 38.87331754 53 54 C54.08868715 55.54470453 55.17996502 57.08758548 56.2734375 58.62890625 C62.91574732 68.06157543 68.98611476 77.57704645 74 88 C74.55945313 89.15757812 75.11890625 90.31515625 75.6953125 91.5078125 C77.05937295 95.15892042 77.34245035 97.75133042 77.25 101.625 C77.23453125 102.71039063 77.2190625 103.79578125 77.203125 104.9140625 C77.01955732 107.7028792 76.62676531 110.28064729 76 113 C75.67 113 75.34 113 75 113 C74.979375 111.741875 74.95875 110.48375 74.9375 109.1875 C74.15933362 102.64888119 70.70776495 98.28974466 67 93 C66.00738404 91.51243581 65.01804385 90.02268273 64.03125 88.53125 C57.56747458 78.82580808 50.7685041 69.72077234 43 61 C41.7912475 59.60452964 40.58286055 58.20874247 39.375 56.8125 C36.05495418 53.04187654 32.69484393 49.30745908 29.32421875 45.58203125 C27.77419115 43.86006782 26.23507487 42.12821991 24.70703125 40.38671875 C20.09256854 35.15275846 15.35610733 30.46183719 10 26 C8.71029297 24.86111328 8.71029297 24.86111328 7.39453125 23.69921875 C-8.70995766 9.72460826 -25.55384425 -0.40323872 -47 -2 C-43.32907238 -3.83546381 -41.67450406 -4.3094637 -37.75390625 -4.59765625 C-36.75166016 -4.67693359 -35.74941406 -4.75621094 -34.71679688 -4.83789062 C-33.67587891 -4.91201172 -32.63496094 -4.98613281 -31.5625 -5.0625 C-29.50111015 -5.21752062 -27.43990259 -5.3749889 -25.37890625 -5.53515625 C-24.4669751 -5.600979 -23.55504395 -5.66680176 -22.61547852 -5.73461914 C-8.31110372 -7.18601981 -8.31110372 -7.18601981 0 0 Z " transform="translate(543,320)" style="fill: #517DA0;"/><path d="M0 0 C4.54741691 0.6588561 9.03488872 1.12669547 13.62109375 1.39453125 C21.0884913 1.91240573 28.20715216 3.56094088 35.4765625 5.28515625 C37.52605103 5.76154541 37.52605103 5.76154541 39.61694336 6.24755859 C43.46828065 7.14648722 47.31628826 8.05862355 51.1640625 8.97265625 C52.85662594 9.36520861 54.54930748 9.75725265 56.2421875 10.1484375 C67.69173075 12.8761228 78.78037553 16.36546528 89.1640625 21.97265625 C89.1640625 22.30265625 89.1640625 22.63265625 89.1640625 22.97265625 C84.09637498 22.64034887 79.88076053 21.99622273 75.15234375 20.125 C68.9304177 17.7991537 62.63591717 16.24740041 56.1640625 14.78515625 C55.06578125 14.52541016 53.9675 14.26566406 52.8359375 13.99804688 C45.92391414 12.41335906 39.2312816 11.52195132 32.1640625 10.97265625 C29.1640625 10.09765625 29.1640625 10.09765625 26.1640625 8.97265625 C24.3778334 8.43346945 22.58540971 7.91460992 20.7890625 7.41015625 C19.91507813 7.16136719 19.04109375 6.91257812 18.140625 6.65625 C-6.57511246 0.98006358 -35.45584477 4.419521 -59.8359375 9.97265625 C-60.75906738 10.17552246 -61.68219727 10.37838867 -62.63330078 10.58740234 C-85.51356624 15.70563777 -103.0781728 24.73574099 -119.8359375 40.97265625 C-120.74859375 41.84535156 -121.66125 42.71804688 -122.6015625 43.6171875 C-127.56369372 48.45303694 -131.76024932 53.38043293 -135.8359375 58.97265625 C-137.46246066 60.678522 -139.12600316 62.35041085 -140.8359375 63.97265625 C-141.7640625 64.90078125 -142.6921875 65.82890625 -143.6484375 66.78515625 C-144.73125 67.86796875 -144.73125 67.86796875 -145.8359375 68.97265625 C-143.8936358 57.75046863 -136.99636249 48.54323058 -129.8359375 39.97265625 C-129.27777344 39.25722656 -128.71960938 38.54179687 -128.14453125 37.8046875 C-116.54415013 23.64871486 -99.41925965 14.68036784 -82.7734375 7.84765625 C-81.4937207 7.32067139 -80.21400391 6.79368652 -78.89550781 6.25073242 C-52.49945978 -4.38481159 -27.74928075 -4.05615937 0 0 Z " transform="translate(426.8359375,284.02734375)" style="fill: #4C7891;"/><path d="M0 0 C5.39218436 7.18957914 8.34376166 15.47207691 11 24 C11.99 23.505 11.99 23.505 13 23 C14.89076207 32.06552884 15.22732782 40.7553352 15 50 C8.2142083 47.73806943 9.84737306 35.028764 10 29 C8.02 29 6.04 29 4 29 C3.731875 30.299375 3.46375 31.59875 3.1875 32.9375 C2.32964397 36.8188486 1.15414759 40.48890191 -0.16015625 44.2421875 C-1.25266621 47.82968531 -2.01135506 51.46167332 -2.8125 55.125 C-4.74144576 63.49354414 -7.50332548 71.16744908 -11 79 C-11.474375 80.0725 -11.94875 81.145 -12.4375 82.25 C-15.76065212 89.32975887 -19.8812715 95.11146272 -25 101 C-25.86625 102.03060547 -25.86625 102.03060547 -26.75 103.08203125 C-30.48132131 107.4611514 -34.4653465 111.52608243 -38.59375 115.53125 C-40.53086602 117.51868072 -42.38049012 119.59118764 -44.19921875 121.6875 C-48.37076477 126.49279797 -52.81620275 131.00003828 -57.3125 135.5 C-58.12267578 136.32242188 -58.93285156 137.14484375 -59.76757812 137.9921875 C-60.54166016 138.76820313 -61.31574219 139.54421875 -62.11328125 140.34375 C-62.81235596 141.04693359 -63.51143066 141.75011719 -64.23168945 142.47460938 C-66 144 -66 144 -68 144 C-68 144.66 -68 145.32 -68 146 C-69.89400357 147.65294857 -71.78825473 149.30561412 -73.68359375 150.95703125 C-75.12732815 152.23034169 -76.55932835 153.51724028 -77.97265625 154.82421875 C-86.33323187 162.508216 -119.10445059 192.44777471 -130 187 C-128.77925781 186.24976563 -127.55851562 185.49953125 -126.30078125 184.7265625 C-98.8105942 167.69402023 -72.89490291 145.83646713 -51.86328125 121.140625 C-49.5369826 118.46806387 -47.10855356 115.89947191 -44.6875 113.3125 C-33.25009126 100.85808501 -21.66995907 86.67207165 -15 71 C-14.56945312 69.989375 -14.13890625 68.97875 -13.6953125 67.9375 C-10.53848314 59.8679717 -9.02738358 51.97784851 -7.81640625 43.41796875 C-6.74903586 36.0076072 -5.24945074 28.67829325 -3.80078125 21.33496094 C-2.40812999 14.24169449 -1.14994664 7.13669177 0 0 Z " transform="translate(623,439)" style="fill: #ECF1F1;"/><path d="M0 0 C0 20.23497349 -43.08482929 48.67799205 -60.20703125 53.99609375 C-63.13026349 54.7494298 -66.03720779 55.42320992 -69 56 C-69.91523438 56.185625 -70.83046875 56.37125 -71.7734375 56.5625 C-95.01802318 59.71430823 -110.43894502 54.24312897 -127 38 C-125 37 -125 37 -122.4375 38.0234375 C-120.7359375 38.69246094 -120.7359375 38.69246094 -119 39.375 C-117.88625 39.81585937 -116.7725 40.25671875 -115.625 40.7109375 C-75.5375579 54.96617014 -27.73547132 27.73547132 0 0 Z " transform="translate(509,500)" style="fill: #F4F6F6;"/><path d="M0 0 C4.2049892 3.45743557 8.00641778 7.0461698 11.75 11 C61.5000799 61.09036773 141.61018249 80.74265806 210 74 C197.85732962 82.09511359 180.46903142 81.36131415 166.5625 81.3125 C165.71829498 81.31001251 164.87408997 81.30752502 164.00430298 81.30496216 C109.92001557 81.05840549 47.6910868 56.35535521 12.01171875 14.26171875 C8.83695957 10.69242639 5.38132375 7.41331616 1.94140625 4.1015625 C0 2 0 2 0 0 Z " transform="translate(321,795)" style="fill: #ECEFEE;"/><path d="M0 0 C0 3.38469523 -3.06097987 3.07114073 -6 4 C-8.04141259 4.41317074 -10.09204167 4.78265818 -12.1484375 5.11328125 C-13.31084961 5.30639893 -14.47326172 5.4995166 -15.67089844 5.69848633 C-17.50442871 6.0024231 -17.50442871 6.0024231 -19.375 6.3125 C-36.40792415 9.27308829 -50.64443281 13.99639099 -66 22 C-74.36768802 26 -74.36768802 26 -77 26 C-80.45875792 19.08248416 -75.86553242 11.85526758 -71 7 C-51.62895887 -9.57640476 -22.82063072 -4.94373431 0 0 Z " transform="translate(496,308)" style="fill: #F0F3F1;"/><path d="M0 0 C3 5.33333333 3 5.33333333 3 9 C1.741875 8.54625 0.48375 8.0925 -0.8125 7.625 C-25.1952041 -0.41367276 -55.6927923 5.55218573 -72.5625 26.125 C-76.02901638 33.05803275 -76.26939554 38.89649862 -76.1953125 46.5234375 C-76.1924826 47.62475006 -76.18965271 48.72606262 -76.18673706 49.86074829 C-76.17557478 53.36561108 -76.15047711 56.87021492 -76.125 60.375 C-76.11496511 62.75650672 -76.10584015 65.13801745 -76.09765625 67.51953125 C-76.07564832 73.34645339 -76.04114537 79.17318284 -76 85 C-82.29985056 81.85007472 -83.11418247 53.11764049 -84.25 45.875 C-84.51248535 44.23265381 -84.51248535 44.23265381 -84.78027344 42.55712891 C-84.94043945 41.52507324 -85.10060547 40.49301758 -85.265625 39.4296875 C-85.47880371 38.07206299 -85.47880371 38.07206299 -85.69628906 36.68701172 C-87.14787907 23.84440756 -74.04378147 15.05161982 -63 10 C-47.96552258 3.91103664 -33.88870676 0.66171746 -17.72583008 0.46557617 C-11.23640876 0.32413484 -4.26046051 -4.26046051 0 0 Z " transform="translate(363,353)" style="fill: #EFF1F2;"/><path d="M0 0 C11.50109998 9.49526197 20.41190003 21.32741374 29.21484375 33.2734375 C31.66699793 36.55444043 34.19268121 39.72767117 36.8125 42.875 C40.83917551 47.73726471 44.45243527 52.78173845 48 58 C49.36717529 59.98170357 50.73438626 61.96338266 52.10229492 63.94458008 C54.40947316 67.29097219 56.70513112 70.64515357 59 74 C59.556875 74.81339844 60.11375 75.62679687 60.6875 76.46484375 C75.30156151 98.09531547 75.30156151 98.09531547 74 102 C71.99950173 99.54207072 69.99955432 97.08369706 68 94.625 C67.40058594 93.88838135 66.80117188 93.1517627 66.18359375 92.39282227 C63.09593217 88.59451503 60.02917857 84.78272883 57 80.9375 C50.31179093 72.54889879 43.18994554 64.46600015 35.9375 56.5625 C23.52693487 42.61365053 2.55157924 18.61963227 0 0 Z " transform="translate(313,512)" style="fill: #EEF0F2;"/><path d="M0 0 C0 2 0 2 -4 4 C-6.59936523 4.4230957 -6.59936523 4.4230957 -9.55859375 4.67578125 C-10.6566333 4.77866455 -11.75467285 4.88154785 -12.88598633 4.98754883 C-14.05798584 5.09478271 -15.22998535 5.2020166 -16.4375 5.3125 C-33.99157603 7.10765666 -49.94177405 10.42626955 -66 18 C-66.99 18.33 -67.98 18.66 -69 19 C-65.96304796 7.12827839 -56.43126697 4.5594273 -45.6875 2.4375 C-44.09228516 2.1132605 -44.09228516 2.1132605 -42.46484375 1.7824707 C-34.01330243 0.10530418 -25.57796096 -1.15481855 -17 -2 C-19.11440702 -6.22881405 -29.7604768 -3.43564023 -34 -3 C-44.81307065 -0.97188475 -44.81307065 -0.97188475 -55 3 C-55.99 2.67 -56.98 2.34 -58 2 C-38.57971645 -8.26500702 -19.86251552 -10.3462954 0 0 Z " transform="translate(355,344)" style="fill: #E6E9E9;"/><path d="M0 0 C12.48084425 11.84864203 5.80229265 37.34964977 -0.4921875 51.2578125 C-3.10448593 56.00867648 -6.37765975 59.98808731 -10 64 C-10.55945313 64.66386719 -11.11890625 65.32773437 -11.6953125 66.01171875 C-20.28310001 75.50449732 -39.99677527 90 -53 90 C-53.33 88.68 -53.66 87.36 -54 86 C-52.5665625 85.46761719 -51.133125 84.93523437 -49.65625 84.38671875 C-43.89825354 82.07845151 -38.74383057 79.10631265 -33.5 75.8125 C-32.57872314 75.23516113 -31.65744629 74.65782227 -30.70825195 74.06298828 C-8.38291603 59.82659961 1.06050795 42.77213786 0.3125 16.0625 C0.27866211 13.73155273 0.27866211 13.73155273 0.24414062 11.35351562 C0.18590125 7.56795655 0.10415539 3.78452606 0 0 Z " transform="translate(383,629)" style="fill: #EDEFEE;"/><path d="M0 0 C8.62342602 8.62342602 3.98999128 26.99254718 1.5 37.5 C-2.25782737 53.45637351 -4.98325259 69.33395578 10 80 C13.95793709 81.97896854 17.62462627 83.33706459 22 84 C15.84620971 88.61534272 9.44932717 89.58618821 3 85 C-8.54047965 73.68145265 -5.93783525 57.62834696 -2.75390625 43.046875 C-0.9253617 33.23147522 -0.75238252 23.27001449 -0.4375 13.3125 C-0.37272461 11.38374023 -0.37272461 11.38374023 -0.30664062 9.41601562 C-0.20163202 6.27742506 -0.09947595 3.13876996 0 0 Z " transform="translate(373,379)" style="fill: #ECEEEE;"/><path d="M0 0 C13.78159349 -1.1770756 26.33352008 0.70858621 39.8125 3.625 C42.13220825 4.1209668 42.13220825 4.1209668 44.4987793 4.62695312 C57.54826232 7.57982181 70.20187017 11.60934634 82 18 C82 18.33 82 18.66 82 19 C76.93231248 18.66769262 72.71669803 18.02356648 67.98828125 16.15234375 C61.7663552 13.82649745 55.47185467 12.27474416 49 10.8125 C47.90171875 10.55275391 46.8034375 10.29300781 45.671875 10.02539062 C38.75985164 8.44070281 32.0672191 7.54929507 25 7 C22 6.125 22 6.125 19 5 C12.6898088 3.09522092 6.58547641 1.62127136 0 1 C0 0.67 0 0.34 0 0 Z " transform="translate(434,288)" style="fill: #6390A6;"/><path d="M0 0 C-0.33 0.66 -0.66 1.32 -1 2 C-1.76441406 1.67386719 -2.52882813 1.34773438 -3.31640625 1.01171875 C-24.89744933 -7.79210027 -49.27087097 -10.43829992 -68.08984375 5.51171875 C-70 7 -70 7 -73 8 C-73.66 9.32 -74.32 10.64 -75 12 C-79.9 19 -79.9 19 -83 19 C-80.85149203 3.82943766 -58.70496164 -6.65495137 -45.3125 -9.375 C-28.87995342 -11.66516813 -14.33948414 -8.17798705 0 0 Z " transform="translate(519,339)" style="fill: #E2E5E6;"/><path d="M0 0 C-0.14347318 2.14599243 -0.28991125 4.29178669 -0.4375 6.4375 C-0.51871094 7.63246094 -0.59992188 8.82742188 -0.68359375 10.05859375 C-0.9079383 12.85320673 -1.18554076 15.64377516 -1.5 18.4296875 C-3.80401203 39.48979747 -3.10639575 60.84688706 -3 82 C-7.99215219 72.01569562 -7.35531004 59.99183865 -7.3125 49.0625 C-7.30730347 46.89965454 -7.30730347 46.89965454 -7.30200195 44.69311523 C-7.24617048 39.15839639 -6.65536656 0 0 0 Z " transform="translate(253,268)" style="fill: #F0F3F5;"/><path d="M0 0 C-12.42841184 4.54446084 -25.12990603 7.48447818 -38.0625 10.1875 C-40.44009521 10.68636719 -40.44009521 10.68636719 -42.86572266 11.1953125 C-71.10529422 17 -71.10529422 17 -80 17 C-70.10302447 10.40201631 -55.68393195 9.35193393 -44.13354492 7.67163086 C-33.85914404 6.11603536 -23.82269663 3.72928571 -13.74902344 1.19775391 C-12.53633789 0.8991748 -11.32365234 0.6005957 -10.07421875 0.29296875 C-8.45906372 -0.11659058 -8.45906372 -0.11659058 -6.8112793 -0.53442383 C-4 -1 -4 -1 0 0 Z " transform="translate(453,496)" style="fill: #E6ECEC;"/><path d="M0 0 C1.52380952 4.95238095 1.52380952 4.95238095 0 8 C-2 8 -2 8 -3.5 6.1875 C-10.82463724 -0.22155758 -20.8733892 0.64493013 -30 1 C-29.34 0.67 -28.68 0.34 -28 0 C-28 -0.66 -28 -1.32 -28 -2 C-16.9361538 -6.87416395 -9.1808201 -9.9302748 0 0 Z " transform="translate(451,441)" style="fill: #ECEFEF;"/><path d="M0 0 C6.70700856 1.60489133 12.8883587 3.8021547 19 7 C16 13 16 13 13.12109375 12.81640625 C7.83116326 11.76844846 3.7498969 9.5289354 -0.9375 6.9375 C-1.81212891 6.46505859 -2.68675781 5.99261719 -3.58789062 5.50585938 C-5.73044507 4.34677254 -7.86595661 3.17468322 -10 2 C-8.20925032 -1.58149935 -3.56828765 -0.31859711 0 0 Z " transform="translate(543,93)" style="fill: #41799C;"/><path d="M0 0 C1.11246094 0.07605469 2.22492188 0.15210938 3.37109375 0.23046875 C6.72167128 0.84152879 8.7839495 1.88569208 11.5625 3.8125 C10.332418 8.73282799 10.332418 8.73282799 6.04052734 8.92602539 C5.0036377 8.92078857 3.96674805 8.91555176 2.8984375 8.91015625 C1.77695312 8.90693359 0.65546875 8.90371094 -0.5 8.90039062 C-1.675625 8.89201172 -2.85125 8.88363281 -4.0625 8.875 C-5.24585938 8.87048828 -6.42921875 8.86597656 -7.6484375 8.86132812 C-10.57817507 8.84951467 -13.50781272 8.83304258 -16.4375 8.8125 C-11.27637019 2.47838615 -8.3585369 -0.66675034 0 0 Z " transform="translate(431.4375,447.1875)" style="fill: #F2F4F3;"/><path d="M0 0 C3 5.33333333 3 5.33333333 3 9 C1.741875 8.54625 0.48375 8.0925 -0.8125 7.625 C-13.47725422 3.44958884 -25.5403041 2.60847538 -38.40625 6.34375 C-41 7 -41 7 -45 7 C-45.33 6.01 -45.66 5.02 -46 4 C-36.55282787 1.43668879 -27.4715755 0.58039348 -17.72998047 0.46704102 C-11.24167838 0.32235293 -4.25890065 -4.25890065 0 0 Z " transform="translate(363,353)" style="fill: #EEEEEF;"/><path d="M0 0 C2.50971388 3.76457082 3.65787032 7.72240599 5 12 C5.29567871 12.93054199 5.59135742 13.86108398 5.89599609 14.81982422 C6.84792613 17.85288061 7.77000388 20.89386464 8.6875 23.9375 C9.00783203 24.95779297 9.32816406 25.97808594 9.65820312 27.02929688 C11.62373422 33.5964338 12.33416742 39.14641543 12 46 C9.70366176 42.55549263 9.45983515 40.06187717 9 36 C8.34 35.67 7.68 35.34 7 35 C5.92711806 32.4460745 4.94062761 29.85553849 4 27.25 C3.484375 25.83203125 2.96875 24.4140625 2.4375 22.953125 C1.963125 21.64859375 1.48875 20.3440625 1 19 C0.62359375 18.10925781 0.2471875 17.21851563 -0.140625 16.30078125 C-2.22335619 10.72474184 -2.69056651 5.38113303 0 0 Z " transform="translate(626,428)" style="fill: #567F9A;"/><path d="M0 0 C0.8971875 1.8871875 0.8971875 1.8871875 1.8125 3.8125 C3.77062287 8.06996295 3.77062287 8.06996295 7 11 C2.12143218 12.20196598 -2.81609376 12.33522127 -7.8125 12.5625 C-8.69615234 12.60568359 -9.57980469 12.64886719 -10.49023438 12.69335938 C-12.65999623 12.79891536 -14.8299791 12.89991071 -17 13 C-15.16622942 9.33245884 -14.11129 7.93306729 -11.125 5.375 C-10.44695312 4.78460938 -9.76890625 4.19421875 -9.0703125 3.5859375 C-6.083046 1.29757863 -3.80170424 0 0 0 Z " transform="translate(465,344)" style="fill: #F2F4F6;"/><path d="M0 0 C0.495 1.485 0.495 1.485 1 3 C0.1234375 3.15855469 -0.753125 3.31710937 -1.65625 3.48046875 C-10.39831749 5.08851165 -19.10942909 6.81861592 -27.8125 8.625 C-28.86824219 8.84309326 -29.92398437 9.06118652 -31.01171875 9.28588867 C-32.00429688 9.49318604 -32.996875 9.7004834 -34.01953125 9.9140625 C-34.90745361 10.0992041 -35.79537598 10.2843457 -36.71020508 10.47509766 C-39.14228213 10.99395011 -39.14228213 10.99395011 -42 12 C-42 6.03241156 -38.0999208 6.52869163 -33 5 C-21.96889013 2.16342889 -11.44267651 -0.20433351 0 0 Z " transform="translate(337,339)" style="fill: #0C0E0D;"/><path d="M0 0 C0.33 0 0.66 0 1 0 C0.99419922 1.11995361 0.98839844 2.23990723 0.98242188 3.39379883 C0.94662322 15.8331926 1.16947799 28.2529958 1.5 40.6875 C1.54839819 42.57616622 1.59657623 44.4648381 1.64453125 46.35351562 C1.76049743 50.9024114 1.87939218 55.45122464 2 60 C1.67 60 1.34 60 1 60 C1 62.97 1 65.94 1 69 C-7.46656041 60.53343959 -2.099881 26.08508604 -1.5625 14.3125 C-1.52334473 13.44592773 -1.48418945 12.57935547 -1.44384766 11.68652344 C-1.23685592 7.71006141 -0.93937579 3.87591187 0 0 Z " transform="translate(251,286)" style="fill: #314245;"/><path d="M0 0 C8.67486681 8.67486681 3.94860985 27.72234727 1.6875 38.375 C1.47472412 39.39215088 1.26194824 40.40930176 1.04272461 41.45727539 C-0.61814079 48.74542719 -0.61814079 48.74542719 -4 51 C-3.86722656 50.26136719 -3.73445313 49.52273438 -3.59765625 48.76171875 C-3.33275391 47.23998047 -3.33275391 47.23998047 -3.0625 45.6875 C-2.88847656 44.70136719 -2.71445312 43.71523438 -2.53515625 42.69921875 C-1.12335441 32.94026738 -0.74887307 23.15903514 -0.4375 13.3125 C-0.39431641 12.02666016 -0.35113281 10.74082031 -0.30664062 9.41601562 C-0.20163202 6.27742506 -0.09947595 3.13876996 0 0 Z " transform="translate(373,379)" style="fill: #E7E9E8;"/><path d="M0 0 C0.33 1.32 0.66 2.64 1 4 C1.99 4.33 2.98 4.66 4 5 C4.02947599 9.24998498 4.04695643 13.49994303 4.0625 17.75 C4.07087891 18.93722656 4.07925781 20.12445313 4.08789062 21.34765625 C4.10867032 28.95302522 3.77144376 36.43341525 3 44 C1.68 43.67 0.36 43.34 -1 43 C-1.21957938 28.65414691 -0.56408781 14.33173098 0 0 Z " transform="translate(634,484)" style="fill: #59819F;"/><path d="M0 0 C1.74214123 2.68021728 2.98660921 4.95982762 4 8 C1.45894997 8.3380019 -1.08287111 8.67021031 -3.625 9 C-5.04039062 9.185625 -6.45578125 9.37125 -7.9140625 9.5625 C-11.32617681 9.92785067 -14.57512042 10.08643229 -18 10 C-15.85418613 5.70837226 -14.34348994 4.50800018 -10.5 1.8125 C-9.03046875 0.77029297 -9.03046875 0.77029297 -7.53125 -0.29296875 C-3.20829493 -3.20829493 -3.20829493 -3.20829493 0 0 Z " transform="translate(323,379)" style="fill: #F3F4F4;"/><path d="M0 0 C0.33802817 5.74647887 0.33802817 5.74647887 -4 9 C-9.53737473 9.94253187 -11.47468741 8.14742658 -15 4 C-13.43389132 -3.8305434 -5.75768771 -5.75768771 0 0 Z " transform="translate(487,342)" style="fill: #F1F1F1;"/><path d="M0 0 C4.35483871 4.35483871 4.35483871 4.35483871 3 9 C0.1927433 13.67578106 -2.43361682 17.69026278 -8 19 C-10.25476323 16.74523677 -9.3618163 13.89453037 -9 11 C-6.46403918 6.93051313 -3.38455278 3.38455278 0 0 Z " transform="translate(784,919)" style="fill: #EDF0F1;"/><path d="M0 0 C2.48205924 0.78255057 4.96059182 1.57629522 7.4375 2.375 C8.81808594 2.81585938 10.19867188 3.25671875 11.62109375 3.7109375 C15 5 15 5 16 7 C13.60637321 7.98454838 11.21000659 8.96243751 8.8125 9.9375 C7.47832031 10.48277344 6.14414062 11.02804687 4.76953125 11.58984375 C1.78711656 12.705545 -0.86994532 13.51985569 -4 14 C-3.525625 13.175 -3.05125 12.35 -2.5625 11.5 C-0.82498943 7.60797633 -0.36430353 4.2259209 0 0 Z " transform="translate(495,339)" style="fill: #ECEDED;"/><path d="M0 0 C2.32753215 3.49129822 2.3416092 4.16683085 1 8 C-3.45652174 11.3423913 -3.45652174 11.3423913 -8 10 C-12.19140625 5.35546875 -12.19140625 5.35546875 -10.6875 2.5625 C-7.72872728 -1.93045117 -4.79188779 -0.95837756 0 0 Z " transform="translate(340,372)" style="fill: #EFF0F0;"/><path d="M0 0 C0 0.66 0 1.32 0 2 C-1.299375 1.566875 -2.59875 1.13375 -3.9375 0.6875 C-4.76636719 0.41679687 -5.59523438 0.14609375 -6.44921875 -0.1328125 C-8.74193927 -0.91226726 -10.99933111 -1.79385206 -13.25 -2.6875 C-25.81313372 -6.15889221 -37.42661754 -3.40091181 -49 2 C-47.7277649 -3.08894039 -47.3642617 -2.24787643 -42.8125 -3.9375 C-41.84957031 -4.29714844 -40.88664062 -4.65679687 -39.89453125 -5.02734375 C-26.91417038 -9.38916542 -11.09717839 -8.32288379 0 0 Z " transform="translate(364,369)" style="fill: #D9DBE0;"/><path d="M0 0 C0.99 0.33 1.98 0.66 3 1 C2.67 1.33 2.34 1.66 2 2 C1.71210397 7.41070045 1.76796822 12.83258223 1.75 18.25 C1.729375 19.75820313 1.70875 21.26640625 1.6875 22.8203125 C1.65577696 31.97240953 2.43355703 40.20131994 5 49 C3.515 49.495 3.515 49.495 2 50 C-4.92730978 21.61820652 -4.92730978 21.61820652 -1 19 C-0.67 12.73 -0.34 6.46 0 0 Z " transform="translate(689,247)" style="fill: #9DACB2;"/><path d="M0 0 C-0.33 0.99 -0.66 1.98 -1 3 C-1.99 2.67 -2.98 2.34 -4 2 C-16.36869314 1.92439674 -29.83565575 3.41782788 -41 9 C-41.99 8.67 -42.98 8.34 -44 8 C-30.32409634 0.77130807 -15.49562362 -3.57591314 0 0 Z " transform="translate(341,338)" style="fill: #E3E3E5;"/><path d="M0 0 C0.474375 0.763125 0.94875 1.52625 1.4375 2.3125 C0.2 1.8175 -1.0375 1.3225 -2.3125 0.8125 C-10.74894617 -1.79179425 -19.83626245 -0.91624603 -28.5625 -0.6875 C-28.8925 -1.6775 -29.2225 -2.6675 -29.5625 -3.6875 C-28.469375 -3.831875 -27.37625 -3.97625 -26.25 -4.125 C-6.76690468 -7.09699759 -6.76690468 -7.09699759 0 0 Z " transform="translate(716.5625,654.6875)" style="fill: #E7E8E9;"/><path d="M0 0 C11.71576077 -0.29870212 22.6764777 -0.52940955 34 3 C34 3.33 34 3.66 34 4 C31.36 4 28.72 4 26 4 C25.68377223 6.42163702 25.68377223 6.42163702 29 7 C22.6813238 6.50441755 17.13432988 4.84642031 11.14453125 2.921875 C7.44997576 1.83875066 3.83484213 1.30077193 0 1 C0 0.67 0 0.34 0 0 Z " transform="translate(434,288)" style="fill: #668293;"/><path d="M0 0 C0.12117188 1.50949219 0.24234375 3.01898438 0.3671875 4.57421875 C1.5460444 19.0793565 1.5460444 19.0793565 3.6328125 33.4765625 C4 36 4 36 4 41 C3.67 40.34 3.34 39.68 3 39 C1.68 39 0.36 39 -1 39 C-0.96519531 37.23849609 -0.96519531 37.23849609 -0.9296875 35.44140625 C-0.81883104 25.5514265 -1.26387991 16.15575169 -2.7578125 6.34375 C-3.21728972 0 -3.21728972 0 0 0 Z " transform="translate(288,434)" style="fill: #9BABB1;"/><path d="M0 0 C2.70340403 2.70340403 2.91924469 5.03511304 3.75 8.75 C4.03359375 9.96171875 4.3171875 11.1734375 4.609375 12.421875 C5.13427713 17.22997851 4.45922652 20.54077348 1 24 C0.53513282 27.12196336 0.53513282 27.12196336 0.375 30.625 C0.30023437 31.81351562 0.22546875 33.00203125 0.1484375 34.2265625 C0.09945312 35.14179688 0.05046875 36.05703125 0 37 C-0.33 37 -0.66 37 -1 37 C-1.17330484 24.63758816 -0.63001059 12.34145746 0 0 Z " transform="translate(638,469)" style="fill: #445E70;"/><path d="M0 0 C1.37195972 5.48783887 -0.90503239 8.73670402 -3.3125 13.5625 C-3.93801758 14.85704102 -3.93801758 14.85704102 -4.57617188 16.17773438 C-6.23388081 19.58040007 -7.89838752 22.84758128 -10 26 C-10.33 25.01 -10.66 24.02 -11 23 C-11.66 23.33 -12.32 23.66 -13 24 C-11.50068603 18.81758867 -9.16071263 14.43216314 -6.5 9.75 C-5.7059375 8.34234375 -4.911875 6.9346875 -4.09375 5.484375 C-2 2 -2 2 0 0 Z " transform="translate(680,697)" style="fill: #1D1E1A;"/><path d="M0 0 C-1.29051581 3.87154743 -4.59136409 8 -9 8 C-9.66 9.32 -10.32 10.64 -11 12 C-15.9 19 -15.9 19 -19 19 C-18.23400672 13.46569852 -6.6319247 -3.31596235 0 0 Z " transform="translate(455,339)" style="fill: #E6EAEA;"/><path d="M0 0 C-11.24198001 3.73925923 -22.28967238 7.00451816 -34 9 C-34 8.01 -34 7.02 -34 6 C-29.08685981 4.79757359 -24.16901542 3.6156401 -19.25 2.4375 C-17.15398437 1.92413086 -17.15398437 1.92413086 -15.015625 1.40039062 C-13.0046875 0.92182617 -13.0046875 0.92182617 -10.953125 0.43359375 C-9.71723633 0.13509521 -8.48134766 -0.16340332 -7.20800781 -0.47094727 C-4 -1 -4 -1 0 0 Z " transform="translate(453,496)" style="fill: #E0E5E4;"/><path d="M0 0 C3.63 1.32 7.26 2.64 11 4 C9 8 9 8 0 10 C0 6.7 0 3.4 0 0 Z " transform="translate(348,371)" style="fill: #E4E6EC;"/><path d="M0 0 C5.07376042 0 4.8310774 5.78971888 6.109375 10.21875 C7.23972688 15.01778783 7.29715214 19.09698964 7 24 C4.70366176 20.55549263 4.45983515 18.06187717 4 14 C3.34 13.67 2.68 13.34 2 13 C0.0977156 8.56133639 -0.19188324 4.79708091 0 0 Z " transform="translate(631,450)" style="fill: #88BDD5;"/><path d="M0 0 C-0.66 1.32 -1.32 2.64 -2 4 C-2.33 4.99 -2.66 5.98 -3 7 C-5.29692448 9.04171065 -7.63243844 11.04063871 -10 13 C-10.99 13.99 -11.98 14.98 -13 16 C-11.80418034 10.31985664 -10.07711427 5.92338284 -7 1 C-6.34 1.66 -5.68 2.32 -5 3 C-2 0 -2 0 0 0 Z " transform="translate(294,337)" style="fill: #3D5E6C;"/><path d="M0 0 C-0.66386719 0.40089844 -1.32773437 0.80179687 -2.01171875 1.21484375 C-10.78784674 6.86487651 -14.5834134 12.67458454 -17 23 C-17.33 23 -17.66 23 -18 23 C-18.75862717 14.08613075 -11.78876295 -3.92958765 0 0 Z " transform="translate(429,308)" style="fill: #BECBCA;"/><path d="M0 0 C1.2895251 5.1581004 -0.01282109 6.84792781 -2.3125 11.5625 C-3.26576172 13.54443359 -3.26576172 13.54443359 -4.23828125 15.56640625 C-6 19 -6 19 -8 22 C-10 18 -10 18 -8.3203125 15.078125 C-7.23363281 13.18320312 -7.23363281 13.18320312 -6.125 11.25 C-5.40570312 9.99703125 -4.68640625 8.7440625 -3.9453125 7.453125 C-2.56561899 5.00403049 -1.25710923 2.51421846 0 0 Z " transform="translate(728,713)" style="fill: #6A6D68;"/><path d="M0 0 C2.68322589 1.29968754 5.35010093 2.63364579 8 4 C9.65697379 4.69040574 11.31923769 5.36971413 13 6 C13 6.33 13 6.66 13 7 C5.74601342 6.52432875 -0.26812223 4.70533406 -7 2 C-4.3567048 -1.96494281 -4.34153755 -1.08538439 0 0 Z " transform="translate(503,300)" style="fill: #2B4553;"/><path d="M0 0 C0 5.96284794 -10.41681149 5.90630431 -16 8 C-16.66 7.34 -17.32 6.68 -18 6 C-2 -1 -2 -1 0 0 Z " transform="translate(222,758)" style="fill: #2A241D;"/><path d="M0 0 C-1 2 -1 2 -3.16015625 2.55078125 C-8.66064275 3.99438134 -13.8274493 5.586143 -19 8 C-17.17634924 0.70539695 -6.90205496 -0.613516 0 0 Z " transform="translate(334,363)" style="fill: #E2E2E3;"/><path d="M0 0 C-0.99 0 -1.98 0 -3 0 C-3 0.66 -3 1.32 -3 2 C-12.5 5 -12.5 5 -17 5 C-17.33 4.01 -17.66 3.02 -18 2 C-15.75256955 1.46818825 -13.50192898 0.94992874 -11.25 0.4375 C-9.99703125 0.14746094 -8.7440625 -0.14257812 -7.453125 -0.44140625 C-4 -1 -4 -1 0 0 Z " transform="translate(335,355)" style="fill: #DCDBDC;"/><path d="M0 0 C0 0.99 0 1.98 0 3 C-0.99 3 -1.98 3 -3 3 C-3 3.66 -3 4.32 -3 5 C-7.455 6.485 -7.455 6.485 -12 8 C-12 7.34 -12 6.68 -12 6 C-12.66 5.67 -13.32 5.34 -14 5 C-9.39671519 2.93321907 -4.87762374 1.29406344 0 0 Z " transform="translate(94,834)" style="fill: #454F4B;"/><path d="M0 0 C-2.43335236 1.34088789 -4.87182223 2.67249254 -7.3125 4 C-8.66988281 4.7425 -10.02726562 5.485 -11.42578125 6.25 C-15 8 -15 8 -18 8 C-4.87468461 -2.4373423 -4.87468461 -2.4373423 0 0 Z " transform="translate(322,175)" style="fill: #84A6AE;"/><path d="M0 0 C0.33 0 0.66 0 1 0 C1.33 1.65 1.66 3.3 2 5 C2.33 5 2.66 5 3 5 C3.25 10.75 3.25 10.75 1 13 C0.53513282 16.12196336 0.53513282 16.12196336 0.375 19.625 C0.30023437 20.81351562 0.22546875 22.00203125 0.1484375 23.2265625 C0.09945312 24.14179688 0.05046875 25.05703125 0 26 C-0.33 26 -0.66 26 -1 26 C-1.10622921 17.2537953 -0.95317549 8.69772635 0 0 Z " transform="translate(638,480)" style="fill: #3B5D7B;"/><path d="M0 0 C0.66 0.66 1.32 1.32 2 2 C-1.96 7.94 -1.96 7.94 -6 14 C-8.02003101 7.93990696 -4.73669081 3.55251811 0 0 Z " transform="translate(269,212)" style="fill: #396384;"/><path d="M0 0 C0.33 1.32 0.66 2.64 1 4 C1.99 4.33 2.98 4.66 4 5 C3 15 3 15 0 16 C0 10.72 0 5.44 0 0 Z " transform="translate(634,484)" style="fill: #7FACCE;"/><path d="M0 0 C2.6906142 3.5874856 4.36237237 6.69416081 6.1875 10.75 C6.71730469 11.92046875 7.24710938 13.0909375 7.79296875 14.296875 C9 17 9 17 8 19 C4.14606629 16.43071086 3.80213224 14.39719563 2.3125 10.0625 C1.87550781 8.81597656 1.43851563 7.56945312 0.98828125 6.28515625 C0 3 0 3 0 0 Z " transform="translate(620,400)" style="fill: #394C55;"/><path d="M0 0 C0 0.33 0 0.66 0 1 C-2.58333333 1.64583333 -5.16666667 2.29166667 -7.75 2.9375 C-9.18859375 3.29714844 -10.6271875 3.65679687 -12.109375 4.02734375 C-14.73958333 4.68489583 -17.36979167 5.34244792 -20 6 C-14.44472059 0.44472059 -7.75211139 -2.02228993 0 0 Z " transform="translate(317,341)" style="fill: #B7BAB3;"/><path d="M0 0 C1.40761216 4.22283649 0.38057211 7.33535636 -0.4375 11.6875 C-0.72496094 13.23824219 -1.01242188 14.78898437 -1.30859375 16.38671875 C-1.53675781 17.57910156 -1.76492187 18.77148438 -2 20 C-2.33 20 -2.66 20 -3 20 C-3.25874126 1.62937063 -3.25874126 1.62937063 0 0 Z " transform="translate(255,264)" style="fill: #283946;"/><path d="M0 0 C0.66 0.66 1.32 1.32 2 2 C2.99 2.66 3.98 3.32 5 4 C3.25 8.875 3.25 8.875 1 10 C1.33 8.35 1.66 6.7 2 5 C0.68 4.67 -0.64 4.34 -2 4 C-2.33 4.66 -2.66 5.32 -3 6 C-3.66 5.67 -4.32 5.34 -5 5 C-4 3 -4 3 0 0 Z " transform="translate(931,840)" style="fill: #9C8A79;"/><path d="M0 0 C0.33 0 0.66 0 1 0 C1.50565628 2.56138985 2.00431422 5.12416197 2.5 7.6875 C2.7784375 9.11449219 3.056875 10.54148437 3.34375 12.01171875 C4 16 4 16 4 21 C1.27691518 15.55383035 -0.24670683 12.33534144 -0.125 6.25 C-0.09792969 4.49429688 -0.09792969 4.49429688 -0.0703125 2.703125 C-0.04710937 1.81109375 -0.02390625 0.9190625 0 0 Z " transform="translate(637,516)" style="fill: #395468;"/><path d="M0 0 C-0.33 0.99 -0.66 1.98 -1 3 C-1.99 2.67 -2.98 2.34 -4 2 C-5.89470816 1.9314505 -7.7916834 1.91519628 -9.6875 1.9375 C-10.68136719 1.94652344 -11.67523438 1.95554687 -12.69921875 1.96484375 C-13.45847656 1.97644531 -14.21773438 1.98804688 -15 2 C-10.48958039 -2.51041961 -5.91272286 -1.43338736 0 0 Z " transform="translate(341,338)" style="fill: #C7C7C8;"/><path d="M0 0 C-2.47419389 2.47419389 -3.58030124 2.35659341 -7 2.625 C-7.886875 2.69976563 -8.77375 2.77453125 -9.6875 2.8515625 C-11.12289723 2.94369948 -12.56164871 3 -14 3 C-13 0 -13 0 0 0 Z " transform="translate(538,867)" style="fill: #393430;"/><path d="M0 0 C0.33 1.98 0.66 3.96 1 6 C0.34 6 -0.32 6 -1 6 C-0.67 8.31 -0.34 10.62 0 13 C-2.01667977 9.97498035 -7.7698075 0 0 0 Z " transform="translate(632,444)" style="fill: #5D93AC;"/><path d="M0 0 C3.30243306 3.30243306 2.64997776 7.44971086 3 12 C2.01 12.33 1.02 12.66 0 13 C0 8.71 0 4.42 0 0 Z " transform="translate(245,361)" style="fill: #628391;"/><path d="M0 0 C-2.97 3.3 -5.94 6.6 -9 10 C-9 5.21828548 -5.12669128 -1.70889709 0 0 Z " transform="translate(307,145)" style="fill: #446C7B;"/><path d="M0 0 C0 0.66 0 1.32 0 2 C-8.75 -0.75 -8.75 -0.75 -11 -3 C-7.13600201 -4.93199899 -3.30676145 -2.20450764 0 0 Z " transform="translate(364,369)" style="fill: #C4C8CE;"/><path d="M0 0 C0.33 0 0.66 0 1 0 C1.33 3.3 1.66 6.6 2 10 C1.67 9.34 1.34 8.68 1 8 C-0.32 8 -1.64 8 -3 8 C-3 6.02 -3 4.04 -3 2 C-2.34 2.66 -1.68 3.32 -1 4 C-0.67 2.68 -0.34 1.36 0 0 Z " transform="translate(290,465)" style="fill: #8E9997;"/><path d="M0 0 C-1 2 -1 2 -11 5 C-3.21621622 -3.21621622 -3.21621622 -3.21621622 0 0 Z " transform="translate(344,299)" style="fill: #2B6E88;"/><path d="M0 0 C-0.33 4.62 -0.66 9.24 -1 14 C-1.99 13.67 -2.98 13.34 -4 13 C-1.46753247 0 -1.46753247 0 0 0 Z " transform="translate(253,268)" style="fill: #E2E7EC;"/><path d="M0 0 C-10 6 -10 6 -13 5 C-3.8 -1.9 -3.8 -1.9 0 0 Z " transform="translate(192,772)" style="fill: #B5B2A3;"/><path d="M0 0 C2.95144084 2.95144084 2.60892863 5.95892923 3 10 C2.01 10.33 1.02 10.66 0 11 C0 7.37 0 3.74 0 0 Z " transform="translate(638,469)" style="fill: #3F6271;"/><path d="M0 0 C4 3 4 3 5 11 C0 4.33333333 0 4.33333333 0 0 Z " transform="translate(281,738)" style="fill: #A9AAAC;"/><path d="M0 0 C1 4 1 4 -1 8 C-1.99 7.67 -2.98 7.34 -4 7 C-3 3 -3 3 0 0 Z " transform="translate(683,691)" style="fill: #9EA09C;"/><path d="M0 0 C5.15688194 -0.17782352 9.19154477 0.07661791 14 2 C14 2.33 14 2.66 14 3 C8.91207374 3.20767046 4.83878167 2.58001034 0 1 C0 0.67 0 0.34 0 0 Z " transform="translate(442,289)" style="fill: #A1B5BE;"/><path d="M0 0 C2.52480693 2.52480693 2.55738633 4.13823034 3.125 7.625 C3.29257812 8.62789063 3.46015625 9.63078125 3.6328125 10.6640625 C3.75398437 11.43492187 3.87515625 12.20578125 4 13 C1.77617801 10.03490401 -0.14265723 7.18401617 -2 4 C-1.34 4 -0.68 4 0 4 C0 2.68 0 1.36 0 0 Z " transform="translate(678,272)" style="fill: #3B5C84;"/><path d="M0 0 C1.54148233 3.08296467 -0.19835367 4.23318599 -2 7 C-6 10 -6 10 -8 9 C-5.36 6.03 -2.72 3.06 0 0 Z " transform="translate(703,230)" style="fill: #7497A8;"/><path d="M0 0 C0 0.66 0 1.32 0 2 C-7 4 -7 4 -9 2 C-2 -1 -2 -1 0 0 Z " transform="translate(222,758)" style="fill: #524740;"/><path d="M0 0 C1 4 1 4 -2 8 C-2.99 8.33 -3.98 8.66 -5 9 C-3.68197635 5.35008834 -2.40785992 3.2104799 0 0 Z " transform="translate(680,697)" style="fill: #282926;"/><path d="M0 0 C2 1 2 1 2 4 C-2.455 3.01 -2.455 3.01 -7 2 C-4.35104543 -1.97343185 -4.2442363 -0.90947921 0 0 Z " transform="translate(503,300)" style="fill: #416073;"/><path d="M0 0 C-1.98 2.31 -3.96 4.62 -6 7 C-7.40766452 2.77700645 -4.89862811 -2.44931405 0 0 Z " transform="translate(685,654)" style="fill: #EDF0EF;"/><path d="M0 0 C-2.31 2.31 -4.62 4.62 -7 7 C-8.55512409 2.33462772 -4.95746269 -2.47873135 0 0 Z " transform="translate(338,113)" style="fill: #386881;"/><path d="M0 0 C-2.31 0.33 -4.62 0.66 -7 1 C-7.33 0.01 -7.66 -0.98 -8 -2 C-1.74117647 -3.48235294 -1.74117647 -3.48235294 0 0 Z " transform="translate(325,359)" style="fill: #D6D4D3;"/><path d="M0 0 C-2.68841859 2.25245881 -4.64641875 3.88213958 -8 5 C-6.75924106 0.03696425 -5.13176037 -1.71058679 0 0 Z " transform="translate(462,336)" style="fill: #DDDFE0;"/><path d="M0 0 C3 1 3 1 5 8 C4.01 8.33 3.02 8.66 2 9 C1.34 6.03 0.68 3.06 0 0 Z " transform="translate(689,288)" style="fill: #8A9BA4;"/><path d="M0 0 C0 0.99 0 1.98 0 3 C-3.3 3 -6.6 3 -10 3 C-6.64781163 0.76520776 -4.01177204 0 0 0 Z " transform="translate(434,285)" style="fill: #629097;"/><path d="M0 0 C4 1 4 1 5 4 C4.01 4.99 3.02 5.98 2 7 C1.34 4.69 0.68 2.38 0 0 Z " transform="translate(469,775)" style="fill: #8A9294;"/><path d="M0 0 C2.44488974 3.6673346 2.00828454 4.51643411 1.125 8.6875 C0.81949219 10.17830078 0.81949219 10.17830078 0.5078125 11.69921875 C0.34023438 12.45847656 0.17265625 13.21773438 0 14 C-0.33 14 -0.66 14 -1 14 C-1.125 4.5 -1.125 4.5 0 0 Z " transform="translate(635,496)" style="fill: #658EB2;"/><path d="M0 0 C-1.2808625 3.64553172 -2.16671013 5.16671013 -5 8 C-3.48648649 0 -3.48648649 0 0 0 Z " transform="translate(267,218)" style="fill: #4F7693;"/><path d="M0 0 C3.02927773 3.02927773 2.13270644 5.8861004 2 10 C-1 6 -1 6 -1 1 C-0.67 0.67 -0.34 0.34 0 0 Z " transform="translate(473,779)" style="fill: #444C4C;"/><path d="M0 0 C1 4 1 4 -1 7 C-1.99 7 -2.98 7 -4 7 C-2.92598892 4.08482708 -2.22189824 2.22189824 0 0 Z " transform="translate(719,732)" style="fill: #232A27;"/></svg>